<svg width="882" height="924" viewBox="0 0 882 924" fill="none" xmlns="http://www.w3.org/2000/svg">
<g clip-path="url(#clip0_235_2871)">
<path d="M1 336.591C1 324.725 10.6193 315.105 22.4853 315.105H881.001V901.474C881.001 913.34 871.382 922.96 859.516 922.96H22.4853C10.6193 922.96 1 913.34 1 901.474V336.591Z" fill="white" fill-opacity="0.05"/>
<mask id="mask0_235_2871" style="mask-type:alpha" maskUnits="userSpaceOnUse" x="1" y="315" width="880" height="87">
<mask id="path-2-inside-1_235_2871" fill="white">
<path d="M1 315.105H881.001V401.047H1V315.105Z"/>
</mask>
<path d="M1 315.105H881.001V401.047H1V315.105Z" fill="#4C4B4E"/>
<path d="M881.001 401.047V400.151H1V401.047V401.942H881.001V401.047Z" fill="white" fill-opacity="0.15" mask="url(#path-2-inside-1_235_2871)"/>
</mask>
<g mask="url(#mask0_235_2871)">
<g filter="url(#filter1_dddd_235_2871)">
<mask id="path-4-inside-2_235_2871" fill="white">
<path d="M1 315.105H881.001V401.047H1V315.105Z"/>
</mask>
<path d="M881.001 401.047V400.151H1V401.047V401.942H881.001V401.047Z" fill="white" fill-opacity="0.15" mask="url(#path-4-inside-2_235_2871)"/>
</g>
</g>
<path d="M586.566 378.059V338.971C591.755 338.821 595.339 338.747 597.318 338.747C601.574 338.747 604.728 339.605 606.782 341.323C608.872 343.003 609.918 345.373 609.918 348.435C609.918 350.712 609.32 352.616 608.126 354.147C606.931 355.677 605.288 356.797 603.198 357.507V357.619C605.736 358.029 607.715 359.037 609.134 360.643C610.59 362.248 611.318 364.339 611.318 366.915C611.318 370.648 610.048 373.485 607.51 375.427C604.971 377.331 601.499 378.283 597.094 378.283C592.8 378.283 589.291 378.208 586.566 378.059ZM597.654 360.251H591.326V373.579C592.856 373.728 594.872 373.803 597.374 373.803C600.323 373.803 602.582 373.205 604.15 372.011C605.755 370.779 606.558 368.987 606.558 366.635C606.558 364.581 605.774 363.013 604.206 361.931C602.675 360.811 600.491 360.251 597.654 360.251ZM597.206 343.227C596.086 343.227 594.126 343.283 591.326 343.395V356.051H597.598C599.8 356.051 601.611 355.472 603.03 354.315C604.448 353.12 605.158 351.515 605.158 349.499C605.158 345.317 602.507 343.227 597.206 343.227ZM656.61 338.915H662.378L644.906 357.339L663.274 378.115H657.17L639.418 357.675L656.61 338.915ZM638.466 378.115H633.706V338.915H638.466V378.115ZM698.292 346.755L674.492 378.115H670.292V338.915H675.052V370.275L698.852 338.915H703.052V378.115H698.292V346.755ZM745.888 378.115H741.128V360.363H719.568V378.115H714.808V338.915H719.568V355.883H741.128V338.915H745.888V378.115ZM754.548 358.515C754.548 352.84 756.433 348.061 760.204 344.179C763.975 340.296 768.753 338.355 774.54 338.355C780.289 338.355 785.049 340.24 788.82 344.011C792.628 347.781 794.532 352.616 794.532 358.515C794.532 364.264 792.628 369.08 788.82 372.963C785.012 376.771 780.252 378.675 774.54 378.675C768.828 378.675 764.049 376.789 760.204 373.019C756.433 369.248 754.548 364.413 754.548 358.515ZM759.588 358.515C759.588 362.92 761.025 366.653 763.9 369.715C766.775 372.701 770.321 374.195 774.54 374.195C778.945 374.195 782.529 372.701 785.292 369.715C788.092 366.728 789.492 362.995 789.492 358.515C789.492 354.035 788.055 350.301 785.18 347.315C782.305 344.328 778.759 342.835 774.54 342.835C770.247 342.835 766.681 344.309 763.844 347.259C761.007 350.208 759.588 353.96 759.588 358.515Z" fill="#F2F2F2"/>
<path d="M85.2 580.96V553.04C88.9067 552.933 91.4667 552.88 92.88 552.88C95.92 552.88 98.1733 553.493 99.64 554.72C101.133 555.92 101.88 557.613 101.88 559.8C101.88 561.427 101.453 562.787 100.6 563.88C99.7467 564.973 98.5733 565.773 97.08 566.28V566.36C98.8933 566.653 100.307 567.373 101.32 568.52C102.36 569.667 102.88 571.16 102.88 573C102.88 575.667 101.973 577.693 100.16 579.08C98.3467 580.44 95.8667 581.12 92.72 581.12C89.6533 581.12 87.1467 581.067 85.2 580.96ZM93.12 568.24H88.6V577.76C89.6933 577.867 91.1333 577.92 92.92 577.92C95.0267 577.92 96.64 577.493 97.76 576.64C98.9067 575.76 99.48 574.48 99.48 572.8C99.48 571.333 98.92 570.213 97.8 569.44C96.7067 568.64 95.1467 568.24 93.12 568.24ZM92.8 556.08C92 556.08 90.6 556.12 88.6 556.2V565.24H93.08C94.6533 565.24 95.9467 564.827 96.96 564C97.9733 563.147 98.48 562 98.48 560.56C98.48 557.573 96.5867 556.08 92.8 556.08ZM117.752 560.64L116.072 558.04L122.792 552.84H125.032V581H121.832V557.44L117.752 560.64ZM149.868 563.12C149.868 568.267 148.548 572.48 145.908 575.76C143.321 578.987 139.975 580.867 135.868 581.4L134.788 578.88C137.961 578.267 140.535 576.907 142.508 574.8C144.481 572.693 145.681 570.013 146.108 566.76C144.855 569.08 142.748 570.24 139.788 570.24C137.335 570.24 135.335 569.427 133.788 567.8C132.215 566.147 131.428 564.093 131.428 561.64C131.428 559 132.335 556.84 134.148 555.16C135.935 553.453 138.001 552.6 140.348 552.6C143.361 552.6 145.695 553.587 147.348 555.56C149.028 557.533 149.868 560.053 149.868 563.12ZM146.468 563.12C146.468 561.067 145.948 559.333 144.908 557.92C143.868 556.507 142.361 555.8 140.388 555.8C138.868 555.8 137.561 556.36 136.468 557.48C135.375 558.573 134.828 559.88 134.828 561.4C134.828 563.053 135.348 564.44 136.388 565.56C137.455 566.68 138.855 567.24 140.588 567.24C142.028 567.24 143.268 566.853 144.308 566.08C145.348 565.307 146.068 564.32 146.468 563.12ZM163.259 565H164.299C165.499 565 166.539 564.547 167.419 563.64C168.326 562.733 168.779 561.653 168.779 560.4C168.779 559.013 168.299 557.907 167.339 557.08C166.379 556.227 165.166 555.8 163.699 555.8C162.259 555.8 161.073 556.227 160.139 557.08C159.206 557.933 158.739 559.04 158.739 560.4C158.739 561.653 159.193 562.733 160.099 563.64C161.006 564.547 162.059 565 163.259 565ZM164.259 568.2H163.379C161.859 568.2 160.553 568.667 159.459 569.6C158.393 570.507 157.859 571.693 157.859 573.16C157.859 574.627 158.406 575.84 159.499 576.8C160.619 577.733 162.033 578.2 163.739 578.2C165.526 578.2 166.953 577.747 168.019 576.84C169.113 575.907 169.659 574.68 169.659 573.16C169.633 571.667 169.113 570.467 168.099 569.56C167.086 568.653 165.806 568.2 164.259 568.2ZM154.459 573.76C154.459 572.08 154.939 570.6 155.899 569.32C156.859 568.013 158.139 567.133 159.739 566.68V566.56C158.459 566.133 157.406 565.307 156.579 564.08C155.753 562.827 155.339 561.44 155.339 559.92C155.339 557.76 156.139 556 157.739 554.64C159.366 553.28 161.366 552.6 163.739 552.6C166.113 552.6 168.113 553.28 169.739 554.64C171.366 556 172.179 557.76 172.179 559.92C172.179 561.333 171.753 562.653 170.899 563.88C170.073 565.08 168.966 565.96 167.579 566.52V566.64C169.179 566.907 170.486 567.68 171.499 568.96C172.539 570.213 173.059 571.733 173.059 573.52C173.059 575.973 172.166 577.893 170.379 579.28C168.566 580.693 166.366 581.4 163.779 581.4C161.139 581.4 158.926 580.707 157.139 579.32C155.353 577.933 154.459 576.08 154.459 573.76ZM192.568 581H189.368V574H176.448V571.72L188.048 553H191.728L180.648 570.8H189.368V563H192.568V570.8H196.448V574H192.568V581ZM212.705 581H209.505V563H220.905V566H212.705V581ZM224.851 578.76C223.091 576.947 222.211 574.693 222.211 572C222.211 569.28 223.091 567.04 224.851 565.28C226.638 563.493 228.958 562.6 231.811 562.6C234.665 562.6 236.971 563.493 238.731 565.28C240.518 567.04 241.411 569.28 241.411 572C241.411 574.72 240.518 576.973 238.731 578.76C236.971 580.52 234.665 581.4 231.811 581.4C228.985 581.4 226.665 580.52 224.851 578.76ZM227.371 567.4C226.198 568.573 225.611 570.107 225.611 572C225.611 573.893 226.185 575.427 227.331 576.6C228.505 577.8 229.998 578.4 231.811 578.4C233.625 578.4 235.105 577.813 236.251 576.64C237.425 575.44 238.011 573.893 238.011 572C238.011 570.16 237.425 568.627 236.251 567.4C235.105 566.2 233.625 565.6 231.811 565.6C229.998 565.6 228.518 566.2 227.371 567.4ZM245.845 585.4H242.845V578H245.085C245.752 577.173 246.339 575.84 246.845 574C247.352 572.133 247.685 570.053 247.845 567.76L248.125 563H260.405V578H263.405V585.4H260.405V581H245.845V585.4ZM251.125 566L250.925 569C250.765 571 250.445 572.827 249.965 574.48C249.485 576.133 248.992 577.307 248.485 578H257.205V566H251.125ZM279.608 563H283.248L276.048 581C274.741 584.173 273.608 586.28 272.648 587.32C271.634 588.44 270.474 589 269.168 589C267.994 589 266.861 588.627 265.768 587.88L266.808 585.44C267.661 585.84 268.328 586.04 268.808 586.04C269.554 586.04 270.221 585.72 270.808 585.08C271.421 584.44 272.034 583.4 272.648 581.96L273.048 581L264.408 563H268.248L273.528 574.44C273.634 574.627 273.994 575.533 274.608 577.16C274.848 576.28 275.128 575.36 275.448 574.4L279.608 563ZM311.921 581H308.721V573.4H298.721V581H295.521V563H298.721V570.4H308.721V563H311.921V581ZM318.668 566.8L317.828 564.24C319.615 563.147 321.615 562.6 323.828 562.6C326.255 562.6 328.015 563.2 329.108 564.4C330.201 565.6 330.748 567.453 330.748 569.96V581H327.708V578.68C326.295 580.413 324.375 581.28 321.948 581.28C320.295 581.28 318.961 580.787 317.948 579.8C316.935 578.787 316.428 577.427 316.428 575.72C316.428 573.96 317.055 572.573 318.308 571.56C319.561 570.52 321.201 570 323.228 570C325.121 570 326.615 570.387 327.708 571.16C327.708 569.133 327.428 567.68 326.868 566.8C326.308 565.92 325.228 565.48 323.628 565.48C322.001 565.48 320.348 565.92 318.668 566.8ZM323.068 578.4C324.855 578.4 326.401 577.627 327.708 576.08V573.8C326.588 573 325.241 572.6 323.668 572.6C322.575 572.6 321.655 572.867 320.908 573.4C320.188 573.907 319.828 574.627 319.828 575.56C319.828 576.44 320.108 577.133 320.668 577.64C321.255 578.147 322.055 578.4 323.068 578.4ZM346.427 563H349.627V581H346.427V574C345.04 574.88 343.373 575.32 341.427 575.32C337.16 575.32 335.027 573.027 335.027 568.44V563H338.427V568.08C338.427 570.907 339.72 572.32 342.307 572.32C343.987 572.32 345.36 571.947 346.427 571.2V563ZM356.363 566.8L355.523 564.24C357.31 563.147 359.31 562.6 361.523 562.6C363.95 562.6 365.71 563.2 366.803 564.4C367.897 565.6 368.443 567.453 368.443 569.96V581H365.403V578.68C363.99 580.413 362.07 581.28 359.643 581.28C357.99 581.28 356.657 580.787 355.643 579.8C354.63 578.787 354.123 577.427 354.123 575.72C354.123 573.96 354.75 572.573 356.003 571.56C357.257 570.52 358.897 570 360.923 570C362.817 570 364.31 570.387 365.403 571.16C365.403 569.133 365.123 567.68 364.563 566.8C364.003 565.92 362.923 565.48 361.323 565.48C359.697 565.48 358.043 565.92 356.363 566.8ZM360.763 578.4C362.55 578.4 364.097 577.627 365.403 576.08V573.8C364.283 573 362.937 572.6 361.363 572.6C360.27 572.6 359.35 572.867 358.603 573.4C357.883 573.907 357.523 574.627 357.523 575.56C357.523 576.44 357.803 577.133 358.363 577.64C358.95 578.147 359.75 578.4 360.763 578.4ZM389.322 581H386.122V566.2H379.802L379.602 569.24C379.389 571.72 379.069 573.787 378.642 575.44C378.242 577.067 377.709 578.293 377.042 579.12C376.402 579.92 375.722 580.48 375.002 580.8C374.282 581.093 373.402 581.24 372.362 581.24L372.122 578.12C372.415 578.147 372.722 578.107 373.042 578C373.362 577.867 373.709 577.6 374.082 577.2C374.482 576.8 374.829 576.267 375.122 575.6C375.442 574.933 375.722 574 375.962 572.8C376.229 571.573 376.402 570.173 376.482 568.6L376.802 563H389.322V581ZM396.051 566.8L395.211 564.24C396.998 563.147 398.998 562.6 401.211 562.6C403.638 562.6 405.398 563.2 406.491 564.4C407.584 565.6 408.131 567.453 408.131 569.96V581H405.091V578.68C403.678 580.413 401.758 581.28 399.331 581.28C397.678 581.28 396.344 580.787 395.331 579.8C394.318 578.787 393.811 577.427 393.811 575.72C393.811 573.96 394.438 572.573 395.691 571.56C396.944 570.52 398.584 570 400.611 570C402.504 570 403.998 570.387 405.091 571.16C405.091 569.133 404.811 567.68 404.251 566.8C403.691 565.92 402.611 565.48 401.011 565.48C399.384 565.48 397.731 565.92 396.051 566.8ZM400.451 578.4C402.238 578.4 403.784 577.627 405.091 576.08V573.8C403.971 573 402.624 572.6 401.051 572.6C399.958 572.6 399.038 572.867 398.291 573.4C397.571 573.907 397.211 574.627 397.211 575.56C397.211 576.44 397.491 577.133 398.051 577.64C398.638 578.147 399.438 578.4 400.451 578.4ZM427.329 576.08L428.849 578.4C427.303 580.4 424.996 581.4 421.929 581.4C419.049 581.4 416.716 580.547 414.929 578.84C413.169 577.133 412.289 574.853 412.289 572C412.289 569.36 413.156 567.133 414.889 565.32C416.623 563.507 418.796 562.6 421.409 562.6C424.556 562.6 426.916 563.387 428.489 564.96L427.009 567.48C425.623 566.227 423.903 565.6 421.849 565.6C420.169 565.6 418.716 566.213 417.489 567.44C416.289 568.64 415.689 570.16 415.689 572C415.689 573.947 416.303 575.493 417.529 576.64C418.783 577.813 420.329 578.4 422.169 578.4C424.249 578.4 425.969 577.627 427.329 576.08ZM439.101 581H433.021V563H436.221V568.4H439.501C441.954 568.4 443.754 568.96 444.901 570.08C446.047 571.173 446.621 572.68 446.621 574.6C446.621 576.413 446.021 577.933 444.821 579.16C443.621 580.387 441.714 581 439.101 581ZM438.901 571.4H436.221V578H438.861C441.767 578 443.221 576.907 443.221 574.72C443.221 572.507 441.781 571.4 438.901 571.4ZM473.496 567.6L463.096 581H459.896V563H463.096V576.4L473.496 563H476.696V581H473.496V567.6ZM496.353 576.08L497.873 578.4C496.326 580.4 494.019 581.4 490.953 581.4C488.073 581.4 485.739 580.547 483.953 578.84C482.193 577.133 481.313 574.853 481.313 572C481.313 569.36 482.179 567.133 483.913 565.32C485.646 563.507 487.819 562.6 490.433 562.6C493.579 562.6 495.939 563.387 497.513 564.96L496.033 567.48C494.646 566.227 492.926 565.6 490.873 565.6C489.193 565.6 487.739 566.213 486.513 567.44C485.313 568.64 484.713 570.16 484.713 572C484.713 573.947 485.326 575.493 486.553 576.64C487.806 577.813 489.353 578.4 491.193 578.4C493.273 578.4 494.993 577.627 496.353 576.08ZM506.13 566.2H499.53V563H515.93V566.2H509.33V581H506.13V566.2ZM520.281 578.76C518.521 576.947 517.641 574.693 517.641 572C517.641 569.28 518.521 567.04 520.281 565.28C522.068 563.493 524.388 562.6 527.241 562.6C530.094 562.6 532.401 563.493 534.161 565.28C535.948 567.04 536.841 569.28 536.841 572C536.841 574.72 535.948 576.973 534.161 578.76C532.401 580.52 530.094 581.4 527.241 581.4C524.414 581.4 522.094 580.52 520.281 578.76ZM522.801 567.4C521.628 568.573 521.041 570.107 521.041 572C521.041 573.893 521.614 575.427 522.761 576.6C523.934 577.8 525.428 578.4 527.241 578.4C529.054 578.4 530.534 577.813 531.681 576.64C532.854 575.44 533.441 573.893 533.441 572C533.441 570.16 532.854 568.627 531.681 567.4C530.534 566.2 529.054 565.6 527.241 565.6C525.428 565.6 523.948 566.2 522.801 567.4ZM544.658 589H541.458V563H544.658V565.12C545.298 564.373 546.178 563.773 547.298 563.32C548.418 562.84 549.578 562.6 550.778 562.6C553.338 562.6 555.351 563.453 556.818 565.16C558.338 566.84 559.098 569.027 559.098 571.72C559.098 574.467 558.231 576.773 556.498 578.64C554.791 580.48 552.538 581.4 549.738 581.4C547.578 581.4 545.885 580.987 544.658 580.16V589ZM549.858 565.6C547.725 565.6 545.991 566.427 544.658 568.08V577C546.071 577.933 547.671 578.4 549.458 578.4C551.351 578.4 552.858 577.8 553.978 576.6C555.125 575.373 555.698 573.787 555.698 571.84C555.698 569.947 555.178 568.44 554.138 567.32C553.098 566.173 551.671 565.6 549.858 565.6ZM577.285 567.6L566.885 581H563.685V563H566.885V576.4L577.285 563H580.485V581H577.285V567.6ZM594.182 563H599.782V581H596.582V575H593.102L588.702 581H584.822L590.022 574.2C588.929 573.96 588.009 573.373 587.262 572.44C586.515 571.48 586.142 570.333 586.142 569C586.142 567.16 586.809 565.707 588.142 564.64C589.475 563.547 591.489 563 594.182 563ZM589.542 569.08C589.542 569.933 589.875 570.64 590.542 571.2C591.209 571.733 591.995 572 592.902 572H596.582V566H593.662C592.302 566 591.275 566.28 590.582 566.84C589.889 567.4 589.542 568.147 589.542 569.08ZM617.783 581H614.583V563H625.983V566H617.783V581ZM629.929 578.76C628.169 576.947 627.289 574.693 627.289 572C627.289 569.28 628.169 567.04 629.929 565.28C631.716 563.493 634.036 562.6 636.889 562.6C639.743 562.6 642.049 563.493 643.809 565.28C645.596 567.04 646.489 569.28 646.489 572C646.489 574.72 645.596 576.973 643.809 578.76C642.049 580.52 639.743 581.4 636.889 581.4C634.063 581.4 631.743 580.52 629.929 578.76ZM632.449 567.4C631.276 568.573 630.689 570.107 630.689 572C630.689 573.893 631.263 575.427 632.409 576.6C633.583 577.8 635.076 578.4 636.889 578.4C638.703 578.4 640.183 577.813 641.329 576.64C642.503 575.44 643.089 573.893 643.089 572C643.089 570.16 642.503 568.627 641.329 567.4C640.183 566.2 638.703 565.6 636.889 565.6C635.076 565.6 633.596 566.2 632.449 567.4ZM664.947 576.08L666.467 578.4C664.92 580.4 662.613 581.4 659.547 581.4C656.667 581.4 654.333 580.547 652.547 578.84C650.787 577.133 649.907 574.853 649.907 572C649.907 569.36 650.773 567.133 652.507 565.32C654.24 563.507 656.413 562.6 659.027 562.6C662.173 562.6 664.533 563.387 666.107 564.96L664.627 567.48C663.24 566.227 661.52 565.6 659.467 565.6C657.787 565.6 656.333 566.213 655.107 567.44C653.907 568.64 653.307 570.16 653.307 572C653.307 573.947 653.92 575.493 655.147 576.64C656.4 577.813 657.947 578.4 659.787 578.4C661.867 578.4 663.587 577.627 664.947 576.08ZM674.723 566.2H668.123V563H684.523V566.2H677.923V581H674.723V566.2ZM701.621 567.6L691.221 581H688.021V563H691.221V576.4L701.621 563H704.821V581H701.621V567.6ZM727.038 581H723.838V573.4H713.838V581H710.638V563H713.838V570.4H723.838V563H727.038V581ZM746.425 567.6L736.025 581H732.825V563H736.025V576.4L746.425 563H749.625V581H746.425V567.6ZM771.443 581H755.443V563H758.643V578H768.243V563H771.443V578H774.443V585.4H771.443V581ZM783.703 581H777.903V563H781.103V568.4H784.063C786.517 568.4 788.317 568.96 789.463 570.08C790.61 571.173 791.183 572.68 791.183 574.6C791.183 576.413 790.583 577.933 789.383 579.16C788.237 580.387 786.343 581 783.703 581ZM797.823 581H794.623V563H797.823V581ZM783.463 571.4H781.103V578H783.423C784.943 578 786.05 577.733 786.743 577.2C787.437 576.667 787.783 575.84 787.783 574.72C787.783 572.507 786.343 571.4 783.463 571.4ZM83.88 641V623C84.0133 623 84.2 623 84.44 623C84.68 622.973 85.0267 622.96 85.48 622.96C85.9333 622.933 86.3467 622.92 86.72 622.92C88.6933 622.867 89.92 622.84 90.4 622.84C95.5733 622.84 98.16 624.387 98.16 627.48C98.16 628.547 97.8267 629.467 97.16 630.24C96.4933 630.987 95.6267 631.44 94.56 631.6V631.68C97.36 632.187 98.76 633.6 98.76 635.92C98.76 639.413 96 641.16 90.48 641.16C90.2133 641.16 89.04 641.133 86.96 641.08C86.56 641.08 86.12 641.067 85.64 641.04C85.16 641.04 84.7867 641.027 84.52 641C84.2533 641 84.04 641 83.88 641ZM90.92 632.92H87.08V638.44C89 638.52 90.2267 638.56 90.76 638.56C93.8267 638.56 95.36 637.6 95.36 635.68C95.36 633.84 93.88 632.92 90.92 632.92ZM90.64 625.44C89.8667 625.44 88.68 625.48 87.08 625.56V630.92H91.12C92.2133 630.92 93.0933 630.667 93.76 630.16C94.4267 629.653 94.76 628.973 94.76 628.12C94.76 626.333 93.3867 625.44 90.64 625.44ZM124.19 623H128.39L120.51 631.6L129.15 641H124.71L116.59 631.8L124.19 623ZM115.83 641H112.63V623H115.83V641ZM146.152 627.6L135.752 641H132.552V623H135.752V636.4L146.152 623H149.352V641H146.152V627.6ZM171.569 641H168.369V633.4H158.369V641H155.169V623H158.369V630.4H168.369V623H171.569V641ZM178.797 638.76C177.037 636.947 176.157 634.693 176.157 632C176.157 629.28 177.037 627.04 178.797 625.28C180.583 623.493 182.903 622.6 185.757 622.6C188.61 622.6 190.917 623.493 192.677 625.28C194.463 627.04 195.357 629.28 195.357 632C195.357 634.72 194.463 636.973 192.677 638.76C190.917 640.52 188.61 641.4 185.757 641.4C182.93 641.4 180.61 640.52 178.797 638.76ZM181.317 627.4C180.143 628.573 179.557 630.107 179.557 632C179.557 633.893 180.13 635.427 181.277 636.6C182.45 637.8 183.943 638.4 185.757 638.4C187.57 638.4 189.05 637.813 190.197 636.64C191.37 635.44 191.957 633.893 191.957 632C191.957 630.16 191.37 628.627 190.197 627.4C189.05 626.2 187.57 625.6 185.757 625.6C183.943 625.6 182.463 626.2 181.317 627.4ZM199.094 638.84C199.094 638.28 199.307 637.787 199.734 637.36C200.187 636.933 200.734 636.72 201.374 636.72C201.934 636.72 202.427 636.933 202.854 637.36C203.28 637.787 203.494 638.28 203.494 638.84C203.494 639.48 203.294 640.027 202.894 640.48C202.494 640.907 201.987 641.12 201.374 641.12C200.734 641.12 200.187 640.907 199.734 640.48C199.307 640.027 199.094 639.48 199.094 638.84ZM238.88 641H235.48V616.2H220.28V641H216.88V613H238.88V641ZM260.15 636.52L261.15 639.04C259.417 640.613 257.164 641.4 254.39 641.4C251.457 641.4 249.124 640.547 247.39 638.84C245.63 637.133 244.75 634.853 244.75 632C244.75 629.307 245.577 627.067 247.23 625.28C248.857 623.493 251.124 622.6 254.03 622.6C256.43 622.6 258.417 623.373 259.99 624.92C261.59 626.44 262.39 628.413 262.39 630.84C262.39 631.613 262.324 632.333 262.19 633H248.35C248.484 634.68 249.11 636 250.23 636.96C251.377 637.92 252.844 638.4 254.63 638.4C256.977 638.4 258.817 637.773 260.15 636.52ZM253.87 625.6C252.297 625.6 250.99 626.04 249.95 626.92C248.937 627.8 248.337 628.96 248.15 630.4H259.07C258.99 628.907 258.484 627.733 257.55 626.88C256.644 626.027 255.417 625.6 253.87 625.6ZM269.932 649H266.732V623H269.932V625.12C270.572 624.373 271.452 623.773 272.572 623.32C273.692 622.84 274.852 622.6 276.052 622.6C278.612 622.6 280.625 623.453 282.092 625.16C283.612 626.84 284.372 629.027 284.372 631.72C284.372 634.467 283.505 636.773 281.772 638.64C280.065 640.48 277.812 641.4 275.012 641.4C272.852 641.4 271.158 640.987 269.932 640.16V649ZM275.132 625.6C272.998 625.6 271.265 626.427 269.932 628.08V637C271.345 637.933 272.945 638.4 274.732 638.4C276.625 638.4 278.132 637.8 279.252 636.6C280.398 635.373 280.972 633.787 280.972 631.84C280.972 629.947 280.452 628.44 279.412 627.32C278.372 626.173 276.945 625.6 275.132 625.6ZM288.958 641V623C289.091 623 289.278 623 289.518 623C289.758 622.973 290.105 622.96 290.558 622.96C291.011 622.933 291.425 622.92 291.798 622.92C293.771 622.867 294.998 622.84 295.478 622.84C300.651 622.84 303.238 624.387 303.238 627.48C303.238 628.547 302.905 629.467 302.238 630.24C301.571 630.987 300.705 631.44 299.638 631.6V631.68C302.438 632.187 303.838 633.6 303.838 635.92C303.838 639.413 301.078 641.16 295.558 641.16C295.291 641.16 294.118 641.133 292.038 641.08C291.638 641.08 291.198 641.067 290.718 641.04C290.238 641.04 289.865 641.027 289.598 641C289.331 641 289.118 641 288.958 641ZM295.998 632.92H292.158V638.44C294.078 638.52 295.305 638.56 295.838 638.56C298.905 638.56 300.438 637.6 300.438 635.68C300.438 633.84 298.958 632.92 295.998 632.92ZM295.718 625.44C294.945 625.44 293.758 625.48 292.158 625.56V630.92H296.198C297.291 630.92 298.171 630.667 298.838 630.16C299.505 629.653 299.838 628.973 299.838 628.12C299.838 626.333 298.465 625.44 295.718 625.44ZM310.164 638.76C308.404 636.947 307.524 634.693 307.524 632C307.524 629.28 308.404 627.04 310.164 625.28C311.95 623.493 314.27 622.6 317.124 622.6C319.977 622.6 322.284 623.493 324.044 625.28C325.83 627.04 326.724 629.28 326.724 632C326.724 634.72 325.83 636.973 324.044 638.76C322.284 640.52 319.977 641.4 317.124 641.4C314.297 641.4 311.977 640.52 310.164 638.76ZM312.684 627.4C311.51 628.573 310.924 630.107 310.924 632C310.924 633.893 311.497 635.427 312.644 636.6C313.817 637.8 315.31 638.4 317.124 638.4C318.937 638.4 320.417 637.813 321.564 636.64C322.737 635.44 323.324 633.893 323.324 632C323.324 630.16 322.737 628.627 321.564 627.4C320.417 626.2 318.937 625.6 317.124 625.6C315.31 625.6 313.83 626.2 312.684 627.4ZM345.541 636.52L346.541 639.04C344.808 640.613 342.554 641.4 339.781 641.4C336.848 641.4 334.514 640.547 332.781 638.84C331.021 637.133 330.141 634.853 330.141 632C330.141 629.307 330.968 627.067 332.621 625.28C334.248 623.493 336.514 622.6 339.421 622.6C341.821 622.6 343.808 623.373 345.381 624.92C346.981 626.44 347.781 628.413 347.781 630.84C347.781 631.613 347.714 632.333 347.581 633H333.741C333.874 634.68 334.501 636 335.621 636.96C336.768 637.92 338.234 638.4 340.021 638.4C342.368 638.4 344.208 637.773 345.541 636.52ZM339.261 625.6C337.688 625.6 336.381 626.04 335.341 626.92C334.328 627.8 333.728 628.96 333.541 630.4H344.461C344.381 628.907 343.874 627.733 342.941 626.88C342.034 626.027 340.808 625.6 339.261 625.6ZM377.307 641H374.107V626H364.307V641H361.107V623H377.307V641ZM384.539 638.76C382.779 636.947 381.899 634.693 381.899 632C381.899 629.28 382.779 627.04 384.539 625.28C386.325 623.493 388.645 622.6 391.499 622.6C394.352 622.6 396.659 623.493 398.419 625.28C400.205 627.04 401.099 629.28 401.099 632C401.099 634.72 400.205 636.973 398.419 638.76C396.659 640.52 394.352 641.4 391.499 641.4C388.672 641.4 386.352 640.52 384.539 638.76ZM387.059 627.4C385.885 628.573 385.299 630.107 385.299 632C385.299 633.893 385.872 635.427 387.019 636.6C388.192 637.8 389.685 638.4 391.499 638.4C393.312 638.4 394.792 637.813 395.939 636.64C397.112 635.44 397.699 633.893 397.699 632C397.699 630.16 397.112 628.627 395.939 627.4C394.792 626.2 393.312 625.6 391.499 625.6C389.685 625.6 388.205 626.2 387.059 627.4ZM412.737 623H418.337V641H415.137V635H411.657L407.257 641H403.377L408.577 634.2C407.483 633.96 406.563 633.373 405.817 632.44C405.07 631.48 404.697 630.333 404.697 629C404.697 627.16 405.363 625.707 406.697 624.64C408.03 623.547 410.043 623 412.737 623ZM408.097 629.08C408.097 629.933 408.43 630.64 409.097 631.2C409.763 631.733 410.55 632 411.457 632H415.137V626H412.217C410.857 626 409.83 626.28 409.137 626.84C408.443 627.4 408.097 628.147 408.097 629.08ZM424.153 641V623C424.287 623 424.473 623 424.713 623C424.953 622.973 425.3 622.96 425.753 622.96C426.207 622.933 426.62 622.92 426.993 622.92C428.967 622.867 430.193 622.84 430.673 622.84C435.847 622.84 438.433 624.387 438.433 627.48C438.433 628.547 438.1 629.467 437.433 630.24C436.767 630.987 435.9 631.44 434.833 631.6V631.68C437.633 632.187 439.033 633.6 439.033 635.92C439.033 639.413 436.273 641.16 430.753 641.16C430.487 641.16 429.313 641.133 427.233 641.08C426.833 641.08 426.393 641.067 425.913 641.04C425.433 641.04 425.06 641.027 424.793 641C424.527 641 424.313 641 424.153 641ZM431.193 632.92H427.353V638.44C429.273 638.52 430.5 638.56 431.033 638.56C434.1 638.56 435.633 637.6 435.633 635.68C435.633 633.84 434.153 632.92 431.193 632.92ZM430.913 625.44C430.14 625.44 428.953 625.48 427.353 625.56V630.92H431.393C432.487 630.92 433.367 630.667 434.033 630.16C434.7 629.653 435.033 628.973 435.033 628.12C435.033 626.333 433.66 625.44 430.913 625.44ZM459.439 641H456.239V626.2H449.919L449.719 629.24C449.506 631.72 449.186 633.787 448.759 635.44C448.359 637.067 447.826 638.293 447.159 639.12C446.519 639.92 445.839 640.48 445.119 640.8C444.399 641.093 443.519 641.24 442.479 641.24L442.239 638.12C442.532 638.147 442.839 638.107 443.159 638C443.479 637.867 443.826 637.6 444.199 637.2C444.599 636.8 444.946 636.267 445.239 635.6C445.559 634.933 445.839 634 446.079 632.8C446.346 631.573 446.519 630.173 446.599 628.6L446.919 623H459.439V641ZM479.408 636.52L480.408 639.04C478.675 640.613 476.421 641.4 473.648 641.4C470.715 641.4 468.381 640.547 466.648 638.84C464.888 637.133 464.008 634.853 464.008 632C464.008 629.307 464.835 627.067 466.488 625.28C468.115 623.493 470.381 622.6 473.288 622.6C475.688 622.6 477.675 623.373 479.248 624.92C480.848 626.44 481.648 628.413 481.648 630.84C481.648 631.613 481.581 632.333 481.448 633H467.608C467.741 634.68 468.368 636 469.488 636.96C470.635 637.92 472.101 638.4 473.888 638.4C476.235 638.4 478.075 637.773 479.408 636.52ZM473.128 625.6C471.555 625.6 470.248 626.04 469.208 626.92C468.195 627.8 467.595 628.96 467.408 630.4H478.328C478.248 628.907 477.741 627.733 476.808 626.88C475.901 626.027 474.675 625.6 473.128 625.6ZM502.389 641H499.189V633.4H489.189V641H485.989V623H489.189V630.4H499.189V623H502.389V641ZM521.777 627.6L511.377 641H508.177V623H511.377V636.4L521.777 623H524.977V641H521.777V627.6ZM544.994 636.52L545.994 639.04C544.261 640.613 542.007 641.4 539.234 641.4C536.301 641.4 533.967 640.547 532.234 638.84C530.474 637.133 529.594 634.853 529.594 632C529.594 629.307 530.421 627.067 532.074 625.28C533.701 623.493 535.967 622.6 538.874 622.6C541.274 622.6 543.261 623.373 544.834 624.92C546.434 626.44 547.234 628.413 547.234 630.84C547.234 631.613 547.167 632.333 547.034 633H533.194C533.327 634.68 533.954 636 535.074 636.96C536.221 637.92 537.687 638.4 539.474 638.4C541.821 638.4 543.661 637.773 544.994 636.52ZM538.714 625.6C537.141 625.6 535.834 626.04 534.794 626.92C533.781 627.8 533.181 628.96 532.994 630.4H543.914C543.834 628.907 543.327 627.733 542.394 626.88C541.487 626.027 540.261 625.6 538.714 625.6ZM574.4 636.08L575.92 638.4C574.373 640.4 572.066 641.4 569 641.4C566.12 641.4 563.786 640.547 562 638.84C560.24 637.133 559.36 634.853 559.36 632C559.36 629.36 560.226 627.133 561.96 625.32C563.693 623.507 565.866 622.6 568.48 622.6C571.626 622.6 573.986 623.387 575.56 624.96L574.08 627.48C572.693 626.227 570.973 625.6 568.92 625.6C567.24 625.6 565.786 626.213 564.56 627.44C563.36 628.64 562.76 630.16 562.76 632C562.76 633.947 563.373 635.493 564.6 636.64C565.853 637.813 567.4 638.4 569.24 638.4C571.32 638.4 573.04 637.627 574.4 636.08ZM595.259 641H592.059V626.2H585.739L585.539 629.24C585.326 631.72 585.006 633.787 584.579 635.44C584.179 637.067 583.646 638.293 582.979 639.12C582.339 639.92 581.659 640.48 580.939 640.8C580.219 641.093 579.339 641.24 578.299 641.24L578.059 638.12C578.353 638.147 578.659 638.107 578.979 638C579.299 637.867 579.646 637.6 580.019 637.2C580.419 636.8 580.766 636.267 581.059 635.6C581.379 634.933 581.659 634 581.899 632.8C582.166 631.573 582.339 630.173 582.419 628.6L582.739 623H595.259V641ZM613.748 623H617.388L610.188 641C608.882 644.173 607.748 646.28 606.788 647.32C605.775 648.44 604.615 649 603.308 649C602.135 649 601.002 648.627 599.908 647.88L600.948 645.44C601.802 645.84 602.468 646.04 602.948 646.04C603.695 646.04 604.362 645.72 604.948 645.08C605.562 644.44 606.175 643.4 606.788 641.96L607.188 641L598.548 623H602.388L607.668 634.44C607.775 634.627 608.135 635.533 608.748 637.16C608.988 636.28 609.268 635.36 609.588 634.4L613.748 623ZM630.997 623H634.197V641H630.997V634C629.61 634.88 627.944 635.32 625.997 635.32C621.73 635.32 619.597 633.027 619.597 628.44V623H622.997V628.08C622.997 630.907 624.29 632.32 626.877 632.32C628.557 632.32 629.93 631.947 630.997 631.2V623ZM653.574 627.6L643.174 641H639.974V623H643.174V636.4L653.574 623H656.774V641H653.574V627.6ZM678.111 641H674.911V626.2H668.591L668.391 629.24C668.178 631.72 667.858 633.787 667.431 635.44C667.031 637.067 666.498 638.293 665.831 639.12C665.191 639.92 664.511 640.48 663.791 640.8C663.071 641.093 662.191 641.24 661.151 641.24L660.911 638.12C661.204 638.147 661.511 638.107 661.831 638C662.151 637.867 662.498 637.6 662.871 637.2C663.271 636.8 663.618 636.267 663.911 635.6C664.231 634.933 664.511 634 664.751 632.8C665.018 631.573 665.191 630.173 665.271 628.6L665.591 623H678.111V641ZM685.32 638.76C683.56 636.947 682.68 634.693 682.68 632C682.68 629.28 683.56 627.04 685.32 625.28C687.107 623.493 689.427 622.6 692.28 622.6C695.133 622.6 697.44 623.493 699.2 625.28C700.987 627.04 701.88 629.28 701.88 632C701.88 634.72 700.987 636.973 699.2 638.76C697.44 640.52 695.133 641.4 692.28 641.4C689.453 641.4 687.133 640.52 685.32 638.76ZM687.84 627.4C686.667 628.573 686.08 630.107 686.08 632C686.08 633.893 686.653 635.427 687.8 636.6C688.973 637.8 690.467 638.4 692.28 638.4C694.093 638.4 695.573 637.813 696.72 636.64C697.893 635.44 698.48 633.893 698.48 632C698.48 630.16 697.893 628.627 696.72 627.4C695.573 626.2 694.093 625.6 692.28 625.6C690.467 625.6 688.987 626.2 687.84 627.4ZM720.337 636.08L721.857 638.4C720.311 640.4 718.004 641.4 714.937 641.4C712.057 641.4 709.724 640.547 707.937 638.84C706.177 637.133 705.297 634.853 705.297 632C705.297 629.36 706.164 627.133 707.897 625.32C709.631 623.507 711.804 622.6 714.417 622.6C717.564 622.6 719.924 623.387 721.497 624.96L720.017 627.48C718.631 626.227 716.911 625.6 714.857 625.6C713.177 625.6 711.724 626.213 710.497 627.44C709.297 628.64 708.697 630.16 708.697 632C708.697 633.947 709.311 635.493 710.537 636.64C711.791 637.813 713.337 638.4 715.177 638.4C717.257 638.4 718.977 637.627 720.337 636.08ZM732.108 641H726.028V623H729.228V628.4H732.508C734.962 628.4 736.762 628.96 737.908 630.08C739.055 631.173 739.628 632.68 739.628 634.6C739.628 636.413 739.028 637.933 737.828 639.16C736.628 640.387 734.722 641 732.108 641ZM731.908 631.4H729.228V638H731.868C734.775 638 736.228 636.907 736.228 634.72C736.228 632.507 734.788 631.4 731.908 631.4ZM83.88 701V683C84.0133 683 84.2 683 84.44 683C84.68 682.973 85.0267 682.96 85.48 682.96C85.9333 682.933 86.3467 682.92 86.72 682.92C88.6933 682.867 89.92 682.84 90.4 682.84C95.5733 682.84 98.16 684.387 98.16 687.48C98.16 688.547 97.8267 689.467 97.16 690.24C96.4933 690.987 95.6267 691.44 94.56 691.6V691.68C97.36 692.187 98.76 693.6 98.76 695.92C98.76 699.413 96 701.16 90.48 701.16C90.2133 701.16 89.04 701.133 86.96 701.08C86.56 701.08 86.12 701.067 85.64 701.04C85.16 701.04 84.7867 701.027 84.52 701C84.2533 701 84.04 701 83.88 701ZM90.92 692.92H87.08V698.44C89 698.52 90.2267 698.56 90.76 698.56C93.8267 698.56 95.36 697.6 95.36 695.68C95.36 693.84 93.88 692.92 90.92 692.92ZM90.64 685.44C89.8667 685.44 88.68 685.48 87.08 685.56V690.92H91.12C92.2133 690.92 93.0933 690.667 93.76 690.16C94.4267 689.653 94.76 688.973 94.76 688.12C94.76 686.333 93.3867 685.44 90.64 685.44ZM128.15 701H124.95V686.2H118.63L118.43 689.24C118.217 691.72 117.897 693.787 117.47 695.44C117.07 697.067 116.537 698.293 115.87 699.12C115.23 699.92 114.55 700.48 113.83 700.8C113.11 701.093 112.23 701.24 111.19 701.24L110.95 698.12C111.243 698.147 111.55 698.107 111.87 698C112.19 697.867 112.537 697.6 112.91 697.2C113.31 696.8 113.657 696.267 113.95 695.6C114.27 694.933 114.55 694 114.79 692.8C115.057 691.573 115.23 690.173 115.31 688.6L115.63 683H128.15V701ZM148.119 696.52L149.119 699.04C147.386 700.613 145.132 701.4 142.359 701.4C139.426 701.4 137.092 700.547 135.359 698.84C133.599 697.133 132.719 694.853 132.719 692C132.719 689.307 133.546 687.067 135.199 685.28C136.826 683.493 139.092 682.6 141.999 682.6C144.399 682.6 146.386 683.373 147.959 684.92C149.559 686.44 150.359 688.413 150.359 690.84C150.359 691.613 150.292 692.333 150.159 693H136.319C136.452 694.68 137.079 696 138.199 696.96C139.346 697.92 140.812 698.4 142.599 698.4C144.946 698.4 146.786 697.773 148.119 696.52ZM141.839 685.6C140.266 685.6 138.959 686.04 137.919 686.92C136.906 687.8 136.306 688.96 136.119 690.4H147.039C146.959 688.907 146.452 687.733 145.519 686.88C144.612 686.027 143.386 685.6 141.839 685.6ZM157.9 701H154.7V683H166.1V686H157.9V701ZM182.807 696.52L183.807 699.04C182.073 700.613 179.82 701.4 177.047 701.4C174.113 701.4 171.78 700.547 170.047 698.84C168.287 697.133 167.407 694.853 167.407 692C167.407 689.307 168.233 687.067 169.887 685.28C171.513 683.493 173.78 682.6 176.687 682.6C179.087 682.6 181.073 683.373 182.647 684.92C184.247 686.44 185.047 688.413 185.047 690.84C185.047 691.613 184.98 692.333 184.847 693H171.007C171.14 694.68 171.767 696 172.887 696.96C174.033 697.92 175.5 698.4 177.287 698.4C179.633 698.4 181.473 697.773 182.807 696.52ZM176.527 685.6C174.953 685.6 173.647 686.04 172.607 686.92C171.593 687.8 170.993 688.96 170.807 690.4H181.727C181.647 688.907 181.14 687.733 180.207 686.88C179.3 686.027 178.073 685.6 176.527 685.6ZM205.788 701H202.588V693.4H192.588V701H189.388V683H192.588V690.4H202.588V683H205.788V701ZM212.095 705.4H209.095V698H211.335C212.002 697.173 212.589 695.84 213.095 694C213.602 692.133 213.935 690.053 214.095 687.76L214.375 683H226.655V698H229.655V705.4H226.655V701H212.095V705.4ZM217.375 686L217.175 689C217.015 691 216.695 692.827 216.215 694.48C215.735 696.133 215.242 697.307 214.735 698H223.455V686H217.375ZM234.098 686.8L233.258 684.24C235.044 683.147 237.044 682.6 239.258 682.6C241.684 682.6 243.444 683.2 244.538 684.4C245.631 685.6 246.178 687.453 246.178 689.96V701H243.138V698.68C241.724 700.413 239.804 701.28 237.378 701.28C235.724 701.28 234.391 700.787 233.378 699.8C232.364 698.787 231.858 697.427 231.858 695.72C231.858 693.96 232.484 692.573 233.738 691.56C234.991 690.52 236.631 690 238.658 690C240.551 690 242.044 690.387 243.138 691.16C243.138 689.133 242.858 687.68 242.298 686.8C241.738 685.92 240.658 685.48 239.058 685.48C237.431 685.48 235.778 685.92 234.098 686.8ZM238.498 698.4C240.284 698.4 241.831 697.627 243.138 696.08V693.8C242.018 693 240.671 692.6 239.098 692.6C238.004 692.6 237.084 692.867 236.338 693.4C235.618 693.907 235.258 694.627 235.258 695.56C235.258 696.44 235.538 697.133 236.098 697.64C236.684 698.147 237.484 698.4 238.498 698.4ZM254.736 709H251.536V683H254.736V685.12C255.376 684.373 256.256 683.773 257.376 683.32C258.496 682.84 259.656 682.6 260.856 682.6C263.416 682.6 265.43 683.453 266.896 685.16C268.416 686.84 269.176 689.027 269.176 691.72C269.176 694.467 268.31 696.773 266.576 698.64C264.87 700.48 262.616 701.4 259.816 701.4C257.656 701.4 255.963 700.987 254.736 700.16V709ZM259.936 685.6C257.803 685.6 256.07 686.427 254.736 688.08V697C256.15 697.933 257.75 698.4 259.536 698.4C261.43 698.4 262.936 697.8 264.056 696.6C265.203 695.373 265.776 693.787 265.776 691.84C265.776 689.947 265.256 688.44 264.216 687.32C263.176 686.173 261.75 685.6 259.936 685.6ZM290.163 701H286.963V693.4H276.963V701H273.763V683H276.963V690.4H286.963V683H290.163V701ZM297.39 698.76C295.63 696.947 294.75 694.693 294.75 692C294.75 689.28 295.63 687.04 297.39 685.28C299.177 683.493 301.497 682.6 304.35 682.6C307.204 682.6 309.51 683.493 311.27 685.28C313.057 687.04 313.95 689.28 313.95 692C313.95 694.72 313.057 696.973 311.27 698.76C309.51 700.52 307.204 701.4 304.35 701.4C301.524 701.4 299.204 700.52 297.39 698.76ZM299.91 687.4C298.737 688.573 298.15 690.107 298.15 692C298.15 693.893 298.724 695.427 299.87 696.6C301.044 697.8 302.537 698.4 304.35 698.4C306.164 698.4 307.644 697.813 308.79 696.64C309.964 695.44 310.55 693.893 310.55 692C310.55 690.16 309.964 688.627 308.79 687.4C307.644 686.2 306.164 685.6 304.35 685.6C302.537 685.6 301.057 686.2 299.91 687.4ZM321.768 701H318.568V683H321.488L328.408 691.92L334.968 683H337.808V701H334.608V687.88L328.368 696.24H328.248L321.768 687.88V701ZM366.431 696.08L367.951 698.4C366.404 700.4 364.098 701.4 361.031 701.4C358.151 701.4 355.818 700.547 354.031 698.84C352.271 697.133 351.391 694.853 351.391 692C351.391 689.36 352.258 687.133 353.991 685.32C355.724 683.507 357.898 682.6 360.511 682.6C363.658 682.6 366.018 683.387 367.591 684.96L366.111 687.48C364.724 686.227 363.004 685.6 360.951 685.6C359.271 685.6 357.818 686.213 356.591 687.44C355.391 688.64 354.791 690.16 354.791 692C354.791 693.947 355.404 695.493 356.631 696.64C357.884 697.813 359.431 698.4 361.271 698.4C363.351 698.4 365.071 697.627 366.431 696.08ZM372.586 698.76C370.826 696.947 369.946 694.693 369.946 692C369.946 689.28 370.826 687.04 372.586 685.28C374.372 683.493 376.692 682.6 379.546 682.6C382.399 682.6 384.706 683.493 386.466 685.28C388.252 687.04 389.146 689.28 389.146 692C389.146 694.72 388.252 696.973 386.466 698.76C384.706 700.52 382.399 701.4 379.546 701.4C376.719 701.4 374.399 700.52 372.586 698.76ZM375.106 687.4C373.932 688.573 373.346 690.107 373.346 692C373.346 693.893 373.919 695.427 375.066 696.6C376.239 697.8 377.732 698.4 379.546 698.4C381.359 698.4 382.839 697.813 383.986 696.64C385.159 695.44 385.746 693.893 385.746 692C385.746 690.16 385.159 688.627 383.986 687.4C382.839 686.2 381.359 685.6 379.546 685.6C377.732 685.6 376.252 686.2 375.106 687.4ZM393.763 701V683C393.896 683 394.083 683 394.323 683C394.563 682.973 394.909 682.96 395.363 682.96C395.816 682.933 396.229 682.92 396.603 682.92C398.576 682.867 399.803 682.84 400.283 682.84C405.456 682.84 408.043 684.387 408.043 687.48C408.043 688.547 407.709 689.467 407.043 690.24C406.376 690.987 405.509 691.44 404.443 691.6V691.68C407.243 692.187 408.643 693.6 408.643 695.92C408.643 699.413 405.883 701.16 400.363 701.16C400.096 701.16 398.923 701.133 396.843 701.08C396.443 701.08 396.003 701.067 395.523 701.04C395.043 701.04 394.669 701.027 394.403 701C394.136 701 393.923 701 393.763 701ZM400.803 692.92H396.963V698.44C398.883 698.52 400.109 698.56 400.643 698.56C403.709 698.56 405.243 697.6 405.243 695.68C405.243 693.84 403.763 692.92 400.803 692.92ZM400.523 685.44C399.749 685.44 398.563 685.48 396.963 685.56V690.92H401.003C402.096 690.92 402.976 690.667 403.643 690.16C404.309 689.653 404.643 688.973 404.643 688.12C404.643 686.333 403.269 685.44 400.523 685.44ZM427.728 696.52L428.728 699.04C426.995 700.613 424.742 701.4 421.968 701.4C419.035 701.4 416.702 700.547 414.968 698.84C413.208 697.133 412.328 694.853 412.328 692C412.328 689.307 413.155 687.067 414.808 685.28C416.435 683.493 418.702 682.6 421.608 682.6C424.008 682.6 425.995 683.373 427.568 684.92C429.168 686.44 429.968 688.413 429.968 690.84C429.968 691.613 429.902 692.333 429.768 693H415.928C416.062 694.68 416.688 696 417.808 696.96C418.955 697.92 420.422 698.4 422.208 698.4C424.555 698.4 426.395 697.773 427.728 696.52ZM421.448 685.6C419.875 685.6 418.568 686.04 417.528 686.92C416.515 687.8 415.915 688.96 415.728 690.4H426.648C426.568 688.907 426.062 687.733 425.128 686.88C424.222 686.027 422.995 685.6 421.448 685.6ZM438.278 686.2H431.678V683H448.078V686.2H441.478V701H438.278V686.2ZM464.829 696.08L466.349 698.4C464.803 700.4 462.496 701.4 459.429 701.4C456.549 701.4 454.216 700.547 452.429 698.84C450.669 697.133 449.789 694.853 449.789 692C449.789 689.36 450.656 687.133 452.389 685.32C454.123 683.507 456.296 682.6 458.909 682.6C462.056 682.6 464.416 683.387 465.989 684.96L464.509 687.48C463.123 686.227 461.403 685.6 459.349 685.6C457.669 685.6 456.216 686.213 454.989 687.44C453.789 688.64 453.189 690.16 453.189 692C453.189 693.947 453.803 695.493 455.029 696.64C456.283 697.813 457.829 698.4 459.669 698.4C461.749 698.4 463.469 697.627 464.829 696.08ZM482.081 683H486.281L478.401 691.6L487.041 701H482.601L474.481 691.8L482.081 683ZM473.721 701H470.521V683H473.721V701ZM490.906 698.76C489.146 696.947 488.266 694.693 488.266 692C488.266 689.28 489.146 687.04 490.906 685.28C492.693 683.493 495.013 682.6 497.866 682.6C500.719 682.6 503.026 683.493 504.786 685.28C506.573 687.04 507.466 689.28 507.466 692C507.466 694.72 506.573 696.973 504.786 698.76C503.026 700.52 500.719 701.4 497.866 701.4C495.039 701.4 492.719 700.52 490.906 698.76ZM493.426 687.4C492.253 688.573 491.666 690.107 491.666 692C491.666 693.893 492.239 695.427 493.386 696.6C494.559 697.8 496.053 698.4 497.866 698.4C499.679 698.4 501.159 697.813 502.306 696.64C503.479 695.44 504.066 693.893 504.066 692C504.066 690.16 503.479 688.627 502.306 687.4C501.159 686.2 499.679 685.6 497.866 685.6C496.053 685.6 494.573 686.2 493.426 687.4ZM515.283 701H512.083V683H515.003L521.923 691.92L528.483 683H531.323V701H528.123V687.88L521.883 696.24H521.763L515.283 687.88V701ZM558.307 709H555.107V701.4H554.667C551.653 701.4 549.267 700.52 547.507 698.76C545.773 696.973 544.907 694.72 544.907 692C544.907 689.413 545.787 687.2 547.547 685.36C549.307 683.52 551.667 682.6 554.627 682.6H555.107V673H558.307V682.6H558.827C561.76 682.6 564.107 683.493 565.867 685.28C567.627 687.067 568.507 689.307 568.507 692C568.507 694.8 567.653 697.067 565.947 698.8C564.267 700.533 561.893 701.4 558.827 701.4H558.307V709ZM548.307 692C548.307 693.947 548.88 695.507 550.027 696.68C551.2 697.827 552.787 698.4 554.787 698.4H555.107V685.6H554.587C552.64 685.6 551.107 686.2 549.987 687.4C548.867 688.573 548.307 690.107 548.307 692ZM558.827 685.6H558.307V698.4H558.667C560.693 698.4 562.267 697.827 563.387 696.68C564.533 695.507 565.107 693.947 565.107 692C565.107 690.24 564.547 688.733 563.427 687.48C562.307 686.227 560.773 685.6 558.827 685.6ZM586.699 687.6L576.299 701H573.099V683H576.299V696.4L586.699 683H589.899V701H586.699V687.6ZM611.236 701H608.036V686.2H601.716L601.516 689.24C601.303 691.72 600.983 693.787 600.556 695.44C600.156 697.067 599.623 698.293 598.956 699.12C598.316 699.92 597.636 700.48 596.916 700.8C596.196 701.093 595.316 701.24 594.276 701.24L594.036 698.12C594.329 698.147 594.636 698.107 594.956 698C595.276 697.867 595.623 697.6 595.996 697.2C596.396 696.8 596.743 696.267 597.036 695.6C597.356 694.933 597.636 694 597.876 692.8C598.143 691.573 598.316 690.173 598.396 688.6L598.716 683H611.236V701ZM623.085 701H617.005V683H620.205V688.4H623.485C625.938 688.4 627.738 688.96 628.885 690.08C630.032 691.173 630.605 692.68 630.605 694.6C630.605 696.413 630.005 697.933 628.805 699.16C627.605 700.387 625.698 701 623.085 701ZM622.885 691.4H620.205V698H622.845C625.752 698 627.205 696.907 627.205 694.72C627.205 692.507 625.765 691.4 622.885 691.4ZM638.096 701H634.896V683H637.816L644.736 691.92L651.296 683H654.136V701H650.936V687.88L644.696 696.24H644.576L638.096 687.88V701ZM674.135 696.52L675.135 699.04C673.401 700.613 671.148 701.4 668.375 701.4C665.441 701.4 663.108 700.547 661.375 698.84C659.615 697.133 658.735 694.853 658.735 692C658.735 689.307 659.561 687.067 661.215 685.28C662.841 683.493 665.108 682.6 668.015 682.6C670.415 682.6 672.401 683.373 673.975 684.92C675.575 686.44 676.375 688.413 676.375 690.84C676.375 691.613 676.308 692.333 676.175 693H662.335C662.468 694.68 663.095 696 664.215 696.96C665.361 697.92 666.828 698.4 668.615 698.4C670.961 698.4 672.801 697.773 674.135 696.52ZM667.855 685.6C666.281 685.6 664.975 686.04 663.935 686.92C662.921 687.8 662.321 688.96 662.135 690.4H673.055C672.975 688.907 672.468 687.733 671.535 686.88C670.628 686.027 669.401 685.6 667.855 685.6ZM99.96 757.92L97.8 759.8L90.4 751.08V750.92L97.92 742.28L100 744.12L94.08 751L99.96 757.92ZM92.36 757.92L90.2 759.8L82.8 751.08V750.92L90.32 742.28L92.4 744.12L86.48 751L92.36 757.92ZM109.811 761H106.411V733H122.011V736.2H109.811V761ZM120.867 758.76C119.107 756.947 118.227 754.693 118.227 752C118.227 749.28 119.107 747.04 120.867 745.28C122.654 743.493 124.974 742.6 127.827 742.6C130.68 742.6 132.987 743.493 134.747 745.28C136.534 747.04 137.427 749.28 137.427 752C137.427 754.72 136.534 756.973 134.747 758.76C132.987 760.52 130.68 761.4 127.827 761.4C125 761.4 122.68 760.52 120.867 758.76ZM123.387 747.4C122.214 748.573 121.627 750.107 121.627 752C121.627 753.893 122.2 755.427 123.347 756.6C124.52 757.8 126.014 758.4 127.827 758.4C129.64 758.4 131.12 757.813 132.267 756.64C133.44 755.44 134.027 753.893 134.027 752C134.027 750.16 133.44 748.627 132.267 747.4C131.12 746.2 129.64 745.6 127.827 745.6C126.014 745.6 124.534 746.2 123.387 747.4ZM155.884 756.08L157.404 758.4C155.857 760.4 153.551 761.4 150.484 761.4C147.604 761.4 145.271 760.547 143.484 758.84C141.724 757.133 140.844 754.853 140.844 752C140.844 749.36 141.711 747.133 143.444 745.32C145.177 743.507 147.351 742.6 149.964 742.6C153.111 742.6 155.471 743.387 157.044 744.96L155.564 747.48C154.177 746.227 152.457 745.6 150.404 745.6C148.724 745.6 147.271 746.213 146.044 747.44C144.844 748.64 144.244 750.16 144.244 752C144.244 753.947 144.857 755.493 146.084 756.64C147.337 757.813 148.884 758.4 150.724 758.4C152.804 758.4 154.524 757.627 155.884 756.08ZM165.661 746.2H159.061V743H175.461V746.2H168.861V761H165.661V746.2ZM185.038 761H178.958V743H182.158V748.4H185.438C187.891 748.4 189.691 748.96 190.838 750.08C191.985 751.173 192.558 752.68 192.558 754.6C192.558 756.413 191.958 757.933 190.758 759.16C189.558 760.387 187.651 761 185.038 761ZM184.838 751.4H182.158V758H184.798C187.705 758 189.158 756.907 189.158 754.72C189.158 752.507 187.718 751.4 184.838 751.4ZM204.143 743H209.743V761H206.543V755H203.063L198.663 761H194.783L199.983 754.2C198.889 753.96 197.969 753.373 197.223 752.44C196.476 751.48 196.103 750.333 196.103 749C196.103 747.16 196.769 745.707 198.103 744.64C199.436 743.547 201.449 743 204.143 743ZM199.503 749.08C199.503 749.933 199.836 750.64 200.503 751.2C201.169 751.733 201.956 752 202.863 752H206.543V746H203.623C202.263 746 201.236 746.28 200.543 746.84C199.849 747.4 199.503 748.147 199.503 749.08ZM238.144 747.6L227.744 761H224.544V743H227.744V756.4L238.144 743H241.344V761H238.144V747.6ZM253.121 761.4C251.761 761.4 250.321 761.173 248.801 760.72C247.335 760.24 246.295 759.653 245.681 758.96L247.321 756.56C248.041 757.147 248.895 757.627 249.881 758C250.895 758.347 251.815 758.52 252.641 758.52C254.028 758.52 255.161 758.253 256.041 757.72C256.921 757.16 257.361 756.44 257.361 755.56C257.361 754.813 257.041 754.24 256.401 753.84C255.788 753.44 254.935 753.24 253.841 753.24H250.801V750.64H253.641C254.548 750.64 255.295 750.4 255.881 749.92C256.468 749.413 256.761 748.8 256.761 748.08C256.761 747.28 256.415 746.653 255.721 746.2C255.028 745.72 254.095 745.48 252.921 745.48C251.028 745.48 249.228 746.147 247.521 747.48L246.281 745C247.001 744.253 248.001 743.667 249.281 743.24C250.588 742.813 251.961 742.6 253.401 742.6C255.535 742.6 257.188 743.027 258.361 743.88C259.561 744.733 260.161 745.92 260.161 747.44C260.161 749.52 259.108 750.933 257.001 751.68V751.76C258.175 751.893 259.095 752.36 259.761 753.16C260.428 753.933 260.761 754.88 260.761 756C260.761 757.653 260.055 758.973 258.641 759.96C257.255 760.92 255.415 761.4 253.121 761.4ZM288.542 732.6L290.262 735.12C289.622 736 288.849 736.6 287.942 736.92C286.956 737.267 285.836 737.533 284.582 737.72C283.356 737.907 282.196 738.24 281.102 738.72C278.382 739.973 276.862 742.867 276.542 747.4H276.622C277.209 746.147 278.156 745.133 279.462 744.36C280.796 743.587 282.222 743.2 283.742 743.2C286.302 743.2 288.329 744.013 289.822 745.64C291.342 747.267 292.102 749.44 292.102 752.16C292.102 754.72 291.236 756.907 289.502 758.72C287.796 760.507 285.582 761.4 282.862 761.4C279.929 761.4 277.609 760.4 275.902 758.4C274.196 756.427 273.342 753.693 273.342 750.2C273.342 742.413 275.569 737.573 280.022 735.68C281.036 735.227 282.209 734.893 283.542 734.68C284.582 734.493 285.329 734.347 285.782 734.24C286.236 734.133 286.716 733.947 287.222 733.68C287.756 733.413 288.196 733.053 288.542 732.6ZM276.742 750.8C276.742 753.093 277.302 754.933 278.422 756.32C279.542 757.707 280.996 758.4 282.782 758.4C284.516 758.4 285.929 757.813 287.022 756.64C288.142 755.493 288.702 754.053 288.702 752.32C288.702 750.48 288.182 749 287.142 747.88C286.129 746.76 284.729 746.2 282.942 746.2C281.316 746.2 279.956 746.653 278.862 747.56C277.716 748.493 277.009 749.573 276.742 750.8ZM308.709 743H312.349L305.149 761C303.843 764.173 302.709 766.28 301.749 767.32C300.736 768.44 299.576 769 298.269 769C297.096 769 295.963 768.627 294.869 767.88L295.909 765.44C296.763 765.84 297.429 766.04 297.909 766.04C298.656 766.04 299.323 765.72 299.909 765.08C300.523 764.44 301.136 763.4 301.749 761.96L302.149 761L293.509 743H297.349L302.629 754.44C302.736 754.627 303.096 755.533 303.709 757.16C303.949 756.28 304.229 755.36 304.549 754.4L308.709 743ZM314.869 765.4H311.869V758H314.109C314.775 757.173 315.362 755.84 315.869 754C316.375 752.133 316.709 750.053 316.869 747.76L317.149 743H329.429V758H332.429V765.4H329.429V761H314.869V765.4ZM320.149 746L319.949 749C319.789 751 319.469 752.827 318.989 754.48C318.509 756.133 318.015 757.307 317.509 758H326.229V746H320.149ZM348.631 743H352.271L345.071 761C343.765 764.173 342.631 766.28 341.671 767.32C340.658 768.44 339.498 769 338.191 769C337.018 769 335.885 768.627 334.791 767.88L335.831 765.44C336.685 765.84 337.351 766.04 337.831 766.04C338.578 766.04 339.245 765.72 339.831 765.08C340.445 764.44 341.058 763.4 341.671 761.96L342.071 761L333.431 743H337.271L342.551 754.44C342.658 754.627 343.018 755.533 343.631 757.16C343.871 756.28 344.151 755.36 344.471 754.4L348.631 743ZM378.36 761H355.56V743H358.76V758H365.36V743H368.56V758H375.16V743H378.36V761ZM398.353 756.52L399.353 759.04C397.62 760.613 395.367 761.4 392.593 761.4C389.66 761.4 387.327 760.547 385.593 758.84C383.833 757.133 382.953 754.853 382.953 752C382.953 749.307 383.78 747.067 385.433 745.28C387.06 743.493 389.327 742.6 392.233 742.6C394.633 742.6 396.62 743.373 398.193 744.92C399.793 746.44 400.593 748.413 400.593 750.84C400.593 751.613 400.527 752.333 400.393 753H386.553C386.687 754.68 387.313 756 388.433 756.96C389.58 757.92 391.047 758.4 392.833 758.4C395.18 758.4 397.02 757.773 398.353 756.52ZM392.073 745.6C390.5 745.6 389.193 746.04 388.153 746.92C387.14 747.8 386.54 748.96 386.353 750.4H397.273C397.193 748.907 396.687 747.733 395.753 746.88C394.847 746.027 393.62 745.6 392.073 745.6ZM408.135 761H404.935V743H416.335V746H408.135V761ZM420.281 758.76C418.521 756.947 417.641 754.693 417.641 752C417.641 749.28 418.521 747.04 420.281 745.28C422.068 743.493 424.388 742.6 427.241 742.6C430.094 742.6 432.401 743.493 434.161 745.28C435.948 747.04 436.841 749.28 436.841 752C436.841 754.72 435.948 756.973 434.161 758.76C432.401 760.52 430.094 761.4 427.241 761.4C424.414 761.4 422.094 760.52 420.281 758.76ZM422.801 747.4C421.628 748.573 421.041 750.107 421.041 752C421.041 753.893 421.614 755.427 422.761 756.6C423.934 757.8 425.428 758.4 427.241 758.4C429.054 758.4 430.534 757.813 431.681 756.64C432.854 755.44 433.441 753.893 433.441 752C433.441 750.16 432.854 748.627 431.681 747.4C430.534 746.2 429.054 745.6 427.241 745.6C425.428 745.6 423.948 746.2 422.801 747.4ZM457.978 750.92V751.08L450.578 759.8L448.418 757.92L454.298 751L448.378 744.12L450.458 742.28L457.978 750.92ZM450.378 750.92V751.08L442.978 759.8L440.818 757.92L446.698 751L440.778 744.12L442.858 742.28L450.378 750.92Z" fill="white"/>
</g>
<path d="M1 336.591C1 324.725 10.6193 315.105 22.4853 315.105H881.001V901.474C881.001 913.34 871.382 922.96 859.516 922.96H22.4853C10.6193 922.96 1 913.34 1 901.474V336.591Z" stroke="white" stroke-opacity="0.15"/>
<mask id="mask1_235_2871" style="mask-type:alpha" maskUnits="userSpaceOnUse" x="0" y="227" width="877" height="86">
<rect y="227" width="876.722" height="85.6208" fill="#4C4B4E"/>
</mask>
<g mask="url(#mask1_235_2871)">
<path d="M3.56641 248.405C3.56641 236.583 13.1498 227 24.9716 227L854.993 227C866.815 227 876.398 236.583 876.398 248.405V312.621L24.9716 312.621C13.1498 312.621 3.56641 303.037 3.56641 291.216L3.56641 248.405Z" fill="white" fill-opacity="0.05"/>
<path d="M24.9717 227.446L854.993 227.446C866.568 227.446 875.952 236.83 875.952 248.405V312.175L24.9717 312.175C13.3963 312.175 4.0128 302.791 4.0127 291.216L4.0127 248.405C4.0127 236.83 13.3962 227.446 24.9717 227.446Z" stroke="white" stroke-opacity="0.15" stroke-width="0.891884"/>
<path d="M336.126 282.075L338.03 285.659C336.724 287.003 334.95 288.067 332.71 288.85C330.47 289.634 328.118 290.026 325.654 290.026C319.793 290.026 314.995 288.196 311.262 284.537C307.604 280.804 305.775 275.913 305.775 269.865C305.775 264.041 307.53 259.244 311.04 255.473C314.55 251.628 319.31 249.706 325.32 249.706C330.286 249.706 334.262 250.976 337.248 253.515L335.064 257.099C332.451 255.157 329.221 254.186 325.376 254.186C321.12 254.186 317.629 255.642 314.904 258.554C312.178 261.428 310.815 265.199 310.815 269.865C310.815 274.532 312.215 278.321 315.015 281.234C317.889 284.108 321.585 285.546 326.102 285.546C329.91 285.546 333.252 284.389 336.126 282.075ZM340.994 269.867C340.994 264.192 342.88 259.414 346.651 255.531C350.422 251.649 355.2 249.708 360.987 249.708C366.736 249.708 371.496 251.594 375.267 255.365C379.075 259.136 380.978 263.97 380.978 269.869C380.978 275.618 379.073 280.434 375.265 284.317C371.457 288.125 366.697 290.028 360.985 290.028C355.273 290.028 350.494 288.142 346.649 284.371C342.879 280.6 340.994 275.766 340.994 269.867ZM346.034 269.867C346.034 274.273 347.471 278.006 350.345 281.067C353.22 284.054 356.766 285.548 360.985 285.548C365.39 285.548 368.974 284.055 371.737 281.069C374.537 278.082 375.938 274.349 375.938 269.869C375.938 265.389 374.501 261.655 371.627 258.669C368.752 255.682 365.205 254.188 360.987 254.188C356.693 254.188 353.128 255.662 350.291 258.611C347.453 261.561 346.034 265.313 346.034 269.867ZM406.707 279.447C406.707 278.14 406.352 277.001 405.643 276.03C404.934 275.06 404.019 274.276 402.899 273.678C401.779 273.044 400.528 272.446 399.147 271.886C397.803 271.326 396.441 270.729 395.059 270.094C393.715 269.422 392.483 268.675 391.363 267.854C390.243 267.032 389.329 265.95 388.62 264.606C387.91 263.262 387.556 261.712 387.556 259.957C387.556 257.083 388.62 254.656 390.748 252.678C392.914 250.699 395.788 249.71 399.372 249.71C401.575 249.71 403.647 250.084 405.588 250.83C407.53 251.577 409.06 252.567 410.18 253.799L407.604 257.383C405.476 255.254 402.825 254.19 399.652 254.19C397.487 254.19 395.769 254.713 394.5 255.758C393.231 256.803 392.596 258.203 392.596 259.958C392.596 261.264 392.95 262.403 393.66 263.374C394.369 264.345 395.284 265.129 396.404 265.726C397.523 266.323 398.755 266.902 400.099 267.462C401.481 267.985 402.843 268.564 404.187 269.198C405.569 269.833 406.819 270.561 407.939 271.383C409.059 272.167 409.974 273.249 410.683 274.631C411.392 276.012 411.747 277.599 411.747 279.391C411.747 282.601 410.514 285.177 408.05 287.119C405.661 289.06 402.637 290.03 398.978 290.03C396.402 290.03 393.938 289.507 391.586 288.462C389.234 287.416 387.573 285.979 386.603 284.149L389.347 280.902C390.429 282.32 391.867 283.459 393.658 284.318C395.45 285.139 397.242 285.55 399.034 285.55C401.237 285.55 403.066 285.009 404.523 283.926C405.979 282.807 406.707 281.313 406.707 279.447ZM425.177 289.472L420.417 289.471L420.419 250.271L425.235 250.272L439.962 270.376L454.075 250.273L458.611 250.273L458.609 289.473L453.849 289.473L453.85 257.777L439.961 277.264L439.233 277.264L425.178 257.944L425.177 289.472ZM467.267 269.874C467.268 264.199 469.153 259.421 472.924 255.538C476.695 251.656 481.474 249.715 487.26 249.715C493.01 249.715 497.77 251.601 501.54 255.372C505.348 259.143 507.252 263.977 507.251 269.876C507.251 275.625 505.347 280.441 501.539 284.324C497.73 288.132 492.97 290.035 487.258 290.035C481.546 290.035 476.768 288.149 472.923 284.378C469.152 280.607 467.267 275.773 467.267 269.874ZM472.307 269.874C472.307 274.279 473.744 278.013 476.619 281.074C479.493 284.061 483.04 285.555 487.258 285.555C491.664 285.555 495.248 284.062 498.011 281.076C500.811 278.089 502.211 274.356 502.211 269.876C502.212 265.396 500.774 261.662 497.9 258.676C495.025 255.689 491.479 254.195 487.26 254.195C482.967 254.195 479.401 255.669 476.564 258.618C473.726 261.568 472.308 265.319 472.307 269.874ZM532.98 279.453C532.98 278.147 532.626 277.008 531.916 276.037C531.207 275.067 530.292 274.283 529.173 273.685C528.053 273.051 526.802 272.453 525.421 271.893C524.077 271.333 522.714 270.736 521.333 270.101C519.989 269.429 518.757 268.682 517.637 267.861C516.517 267.039 515.602 265.957 514.893 264.612C514.184 263.268 513.829 261.719 513.829 259.964C513.829 257.09 514.894 254.663 517.022 252.685C519.187 250.706 522.062 249.717 525.646 249.717C527.849 249.717 529.92 250.091 531.862 250.837C533.803 251.584 535.334 252.574 536.454 253.806L533.877 257.39C531.75 255.261 529.099 254.197 525.926 254.197C523.76 254.197 522.043 254.72 520.774 255.765C519.504 256.81 518.869 258.21 518.869 259.965C518.869 261.271 519.224 262.41 519.933 263.381C520.642 264.351 521.557 265.136 522.677 265.733C523.797 266.33 525.029 266.909 526.373 267.469C527.754 267.992 529.117 268.571 530.461 269.205C531.842 269.84 533.093 270.568 534.213 271.39C535.333 272.174 536.247 273.256 536.956 274.638C537.666 276.019 538.02 277.606 538.02 279.398C538.02 282.608 536.788 285.184 534.324 287.126C531.934 289.067 528.91 290.037 525.252 290.037C522.676 290.037 520.212 289.514 517.86 288.469C515.508 287.423 513.847 285.986 512.876 284.156L515.62 280.909C516.703 282.327 518.14 283.466 519.932 284.325C521.724 285.146 523.516 285.557 525.308 285.557C527.511 285.557 529.34 285.016 530.796 283.933C532.252 282.813 532.98 281.32 532.98 279.453Z" fill="#F2F2F2"/>
</g>
<path d="M1 250.621C1 239.785 9.78482 231 20.6214 231H97.0482C102.09 231 106.939 232.941 110.588 236.42L229.636 349.924C235.616 355.625 239 363.527 239 371.789C239 388.474 225.474 402 208.789 402H1V250.621Z" fill="#02081B" stroke="white" stroke-opacity="0.15"/>
<circle cx="34.6152" cy="370.197" r="13.8242" fill="#0F1527"/>
<circle cx="201.398" cy="370.197" r="13.8242" fill="#0F1527"/>
<circle cx="34.6152" cy="256.036" r="13.8242" fill="#0F1527"/>
<defs>
<filter id="filter1_dddd_235_2871" x="-192.367" y="279.297" width="1266.73" height="798.536" filterUnits="userSpaceOnUse" color-interpolation-filters="sRGB">
<feFlood flood-opacity="0" result="BackgroundImageFix"/>
<feColorMatrix in="SourceAlpha" type="matrix" values="0 0 0 0 0 0 0 0 0 0 0 0 0 0 0 0 0 0 127 0" result="hardAlpha"/>
<feOffset dy="30.4375"/>
<feGaussianBlur stdDeviation="33.1231"/>
<feColorMatrix type="matrix" values="0 0 0 0 0 0 0 0 0 0 0 0 0 0 0 0 0 0 0.1 0"/>
<feBlend mode="normal" in2="BackgroundImageFix" result="effect1_dropShadow_235_2871"/>
<feColorMatrix in="SourceAlpha" type="matrix" values="0 0 0 0 0 0 0 0 0 0 0 0 0 0 0 0 0 0 127 0" result="hardAlpha"/>
<feOffset dy="120.855"/>
<feGaussianBlur stdDeviation="60.4273"/>
<feColorMatrix type="matrix" values="0 0 0 0 0 0 0 0 0 0 0 0 0 0 0 0 0 0 0.09 0"/>
<feBlend mode="normal" in2="effect1_dropShadow_235_2871" result="effect2_dropShadow_235_2871"/>
<feColorMatrix in="SourceAlpha" type="matrix" values="0 0 0 0 0 0 0 0 0 0 0 0 0 0 0 0 0 0 127 0" result="hardAlpha"/>
<feOffset dy="272.147"/>
<feGaussianBlur stdDeviation="81.465"/>
<feColorMatrix type="matrix" values="0 0 0 0 0 0 0 0 0 0 0 0 0 0 0 0 0 0 0.05 0"/>
<feBlend mode="normal" in2="effect2_dropShadow_235_2871" result="effect3_dropShadow_235_2871"/>
<feColorMatrix in="SourceAlpha" type="matrix" values="0 0 0 0 0 0 0 0 0 0 0 0 0 0 0 0 0 0 127 0" result="hardAlpha"/>
<feOffset dy="483.419"/>
<feGaussianBlur stdDeviation="96.6837"/>
<feColorMatrix type="matrix" values="0 0 0 0 0 0 0 0 0 0 0 0 0 0 0 0 0 0 0.01 0"/>
<feBlend mode="normal" in2="effect3_dropShadow_235_2871" result="effect4_dropShadow_235_2871"/>
<feBlend mode="normal" in="SourceGraphic" in2="effect4_dropShadow_235_2871" result="shape"/>
</filter>
<clipPath id="clip0_235_2871">
<path d="M1 336.591C1 324.725 10.6193 315.105 22.4853 315.105H881.001V901.474C881.001 913.34 871.382 922.96 859.516 922.96H22.4853C10.6193 922.96 1 913.34 1 901.474V336.591Z" fill="white"/>
</clipPath>
</defs>
</svg>
