<svg width="882" height="924" viewBox="0 0 882 924" fill="none" xmlns="http://www.w3.org/2000/svg">
<g clip-path="url(#clip0_235_2871)">
<path d="M1 336.591C1 324.725 10.6193 315.105 22.4853 315.105H881.001V901.474C881.001 913.34 871.382 922.96 859.516 922.96H22.4853C10.6193 922.96 1 913.34 1 901.474V336.591Z" fill="white" fill-opacity="0.05"/>
<mask id="mask0_235_2871" style="mask-type:alpha" maskUnits="userSpaceOnUse" x="1" y="315" width="880" height="87">
<mask id="path-2-inside-1_235_2871" fill="white">
<path d="M1 315.105H881.001V401.047H1V315.105Z"/>
</mask>
<path d="M1 315.105H881.001V401.047H1V315.105Z" fill="#4C4B4E"/>
<path d="M881.001 401.047V400.151H1V401.047V401.942H881.001V401.047Z" fill="white" fill-opacity="0.15" mask="url(#path-2-inside-1_235_2871)"/>
</mask>
<g mask="url(#mask0_235_2871)">
<g filter="url(#filter1_dddd_235_2871)">
<mask id="path-4-inside-2_235_2871" fill="white">
<path d="M1 315.105H881.001V401.047H1V315.105Z"/>
</mask>
<path d="M881.001 401.047V400.151H1V401.047V401.942H881.001V401.047Z" fill="white" fill-opacity="0.15" mask="url(#path-4-inside-2_235_2871)"/>
</g>
</g>
</g>
<path d="M1 336.591C1 324.725 10.6193 315.105 22.4853 315.105H881.001V901.474C881.001 913.34 871.382 922.96 859.516 922.96H22.4853C10.6193 922.96 1 913.34 1 901.474V336.591Z" stroke="white" stroke-opacity="0.15"/>
<mask id="mask1_235_2871" style="mask-type:alpha" maskUnits="userSpaceOnUse" x="1" y="-1" width="870" height="311">
<rect x="1" y="226.912" width="876.722" height="85.6208" transform="rotate(-15 1 226.912)" fill="#4C4B4E"/>
</mask>
<g mask="url(#mask1_235_2871)">
<path d="M9.98539 246.665C6.92569 235.246 13.7022 223.508 25.1212 220.449L826.86 5.62341C838.279 2.5637 850.016 9.34022 853.076 20.7592L869.696 82.7867L47.2814 303.152C35.8625 306.212 24.1252 299.435 21.0655 288.016L9.98539 246.665Z" fill="white" fill-opacity="0.05"/>
<path d="M25.2367 220.88L826.976 6.05439C838.157 3.05867 849.649 9.69369 852.645 20.8746L869.15 82.4713L47.1661 302.721C35.9851 305.717 24.4927 299.082 21.4967 287.901L10.4165 246.549C7.42053 235.368 14.0557 223.876 25.2367 220.88Z" stroke="white" stroke-opacity="0.15" stroke-width="0.891884"/>
</g>
<path d="M1 250.621C1 239.785 9.78482 231 20.6214 231H97.0482C102.09 231 106.939 232.941 110.588 236.42L229.636 349.924C235.616 355.625 239 363.527 239 371.789C239 388.474 225.474 402 208.789 402H1V250.621Z" fill="#02081B" stroke="white" stroke-opacity="0.15"/>
<circle cx="34.6152" cy="370.197" r="13.8242" fill="#0F1527"/>
<circle cx="201.398" cy="370.197" r="13.8242" fill="#0F1527"/>
<circle cx="34.6152" cy="256.036" r="13.8242" fill="#0F1527"/>
<defs>
<filter id="filter1_dddd_235_2871" x="-192.367" y="279.297" width="1266.73" height="798.536" filterUnits="userSpaceOnUse" color-interpolation-filters="sRGB">
<feFlood flood-opacity="0" result="BackgroundImageFix"/>
<feColorMatrix in="SourceAlpha" type="matrix" values="0 0 0 0 0 0 0 0 0 0 0 0 0 0 0 0 0 0 127 0" result="hardAlpha"/>
<feOffset dy="30.4375"/>
<feGaussianBlur stdDeviation="33.1231"/>
<feColorMatrix type="matrix" values="0 0 0 0 0 0 0 0 0 0 0 0 0 0 0 0 0 0 0.1 0"/>
<feBlend mode="normal" in2="BackgroundImageFix" result="effect1_dropShadow_235_2871"/>
<feColorMatrix in="SourceAlpha" type="matrix" values="0 0 0 0 0 0 0 0 0 0 0 0 0 0 0 0 0 0 127 0" result="hardAlpha"/>
<feOffset dy="120.855"/>
<feGaussianBlur stdDeviation="60.4273"/>
<feColorMatrix type="matrix" values="0 0 0 0 0 0 0 0 0 0 0 0 0 0 0 0 0 0 0.09 0"/>
<feBlend mode="normal" in2="effect1_dropShadow_235_2871" result="effect2_dropShadow_235_2871"/>
<feColorMatrix in="SourceAlpha" type="matrix" values="0 0 0 0 0 0 0 0 0 0 0 0 0 0 0 0 0 0 127 0" result="hardAlpha"/>
<feOffset dy="272.147"/>
<feGaussianBlur stdDeviation="81.465"/>
<feColorMatrix type="matrix" values="0 0 0 0 0 0 0 0 0 0 0 0 0 0 0 0 0 0 0.05 0"/>
<feBlend mode="normal" in2="effect2_dropShadow_235_2871" result="effect3_dropShadow_235_2871"/>
<feColorMatrix in="SourceAlpha" type="matrix" values="0 0 0 0 0 0 0 0 0 0 0 0 0 0 0 0 0 0 127 0" result="hardAlpha"/>
<feOffset dy="483.419"/>
<feGaussianBlur stdDeviation="96.6837"/>
<feColorMatrix type="matrix" values="0 0 0 0 0 0 0 0 0 0 0 0 0 0 0 0 0 0 0.01 0"/>
<feBlend mode="normal" in2="effect3_dropShadow_235_2871" result="effect4_dropShadow_235_2871"/>
<feBlend mode="normal" in="SourceGraphic" in2="effect4_dropShadow_235_2871" result="shape"/>
</filter>
<clipPath id="clip0_235_2871">
<path d="M1 336.591C1 324.725 10.6193 315.105 22.4853 315.105H881.001V901.474C881.001 913.34 871.382 922.96 859.516 922.96H22.4853C10.6193 922.96 1 913.34 1 901.474V336.591Z" fill="white"/>
</clipPath>
</defs>
</svg>
