<svg width="1772" height="812" viewBox="0 0 1772 812" fill="none" xmlns="http://www.w3.org/2000/svg">
<path d="M63.4992 213.78L94.6991 266.942C97.7432 272.129 104.388 273.91 109.618 270.94L163.219 240.5L110.057 271.7C104.87 274.744 103.09 281.389 106.059 286.619L136.499 340.22L105.299 287.058C102.255 281.871 95.6099 280.09 90.3803 283.06L36.7793 313.5L89.9413 282.3C95.1281 279.256 96.9087 272.611 93.9388 267.381L63.4992 213.78Z" fill="#D9D9D9"/>
<path d="M1682.61 16.2413L1695.58 63.2859C1697.18 69.0838 1703.13 72.5236 1708.95 71.0085L1756.18 58.7145L1709.13 71.6798C1703.34 73.2777 1699.9 79.2357 1701.41 85.0557L1713.71 132.28L1700.74 85.2356C1699.14 79.4377 1693.18 75.9979 1687.36 77.513L1640.14 89.807L1687.18 76.8417C1692.98 75.2438 1696.42 69.2858 1694.91 63.4658L1682.61 16.2413Z" fill="#D9D9D9"/>
<path d="M876.85 662.674L862.625 679.996C858.808 684.643 859.431 691.495 864.024 695.377L881.141 709.848L863.819 695.622C859.172 691.806 852.32 692.429 848.438 697.022L833.967 714.139L848.193 696.817C852.009 692.17 851.386 685.318 846.793 681.436L829.676 666.965L846.998 681.19C851.645 685.007 858.497 684.384 862.379 679.791L876.85 662.674Z" fill="#D9D9D9"/>
<path d="M1619.08 728.576L1627.32 753.84C1629.19 759.557 1635.3 762.716 1641.04 760.932L1666.42 753.05L1641.16 761.293C1635.44 763.158 1632.28 769.27 1634.06 775.013L1641.95 800.391L1633.7 775.128C1631.84 769.411 1625.73 766.251 1619.98 768.035L1594.61 775.918L1619.87 767.675C1625.59 765.809 1628.75 759.698 1626.96 753.954L1619.08 728.576Z" fill="#D9D9D9"/>
</svg>
