<svg width="1412" height="491" viewBox="0 0 1412 491" fill="none" xmlns="http://www.w3.org/2000/svg">
<rect x="0.449219" y="0.858887" width="28.9688" height="443.261" fill="white"/>
<rect x="59.7852" y="91.6787" width="40.0207" height="48.5357" fill="white"/>
<rect x="92.1348" y="157.263" width="40.0207" height="48.5357" fill="white"/>
<rect x="135.393" y="118.598" width="40.0207" height="48.5357" fill="white"/>
<rect x="215.895" y="89.3071" width="40.0207" height="381.798" fill="white"/>
<rect x="310.307" y="116.756" width="39.1692" height="362.74" fill="white"/>
<rect x="455.445" y="138.383" width="44.1797" height="351.671" fill="white"/>
<rect x="353.789" y="125.725" width="142.503" height="40.0207" transform="rotate(1.54811 353.789 125.725)" fill="white"/>
<rect x="320.791" y="436.95" width="149.013" height="40.0207" fill="white"/>
<rect x="92.1348" y="205.798" width="40.0207" height="48.5357" fill="white"/>
<path d="M728.244 355.943V463.658H577.5V161.375H734.078V259.297" stroke="white" stroke-width="48"/>
<path d="M831.646 131.998V283.991V478.985" stroke="white" stroke-width="40.0207"/>
<path d="M1288.93 103.391L1291.69 260.828L1295.24 462.806" stroke="white" stroke-width="32"/>
<path d="M1395.83 59.6982L1395.21 232.002L1394.41 453.053" stroke="white" stroke-width="32"/>
<rect x="855.785" y="270.008" width="40.8722" height="36.6146" fill="white"/>
<rect x="908.703" y="310.633" width="40.8722" height="36.6146" fill="white"/>
<rect x="961.492" y="351.94" width="40.8722" height="36.6146" fill="white"/>
<rect x="958.934" y="401.328" width="40.8722" height="36.6146" fill="white"/>
<rect x="961.531" y="439.568" width="40.8722" height="36.6146" fill="white"/>
<rect x="909.52" y="225.75" width="40.8722" height="36.6146" fill="white"/>
<rect x="959.43" y="174.511" width="40.8722" height="36.6146" fill="white"/>
<rect x="957.73" y="125.975" width="40.8722" height="36.6146" fill="white"/>
<rect x="1053.66" y="111.623" width="40.8722" height="378.068" fill="white"/>
<rect x="1097.71" y="109.966" width="40.8722" height="36.6146" transform="rotate(-12.8214 1097.71 109.966)" fill="white"/>
<rect x="1098.1" y="247.488" width="40.8722" height="36.6146" transform="rotate(-5.56579 1098.1 247.488)" fill="white"/>
<rect x="1144.11" y="102.47" width="40.8722" height="36.6146" transform="rotate(-8.3284 1144.11 102.47)" fill="white"/>
<path d="M1313.72 48.4675L1340.96 39.1975L1340.96 82.5278L1313.72 93.1716L1313.72 48.4675Z" fill="white"/>
<path d="M1348.16 27.5701L1375.39 18.3L1375.39 61.6303L1348.16 72.2742L1348.16 27.5701Z" fill="white"/>
<path d="M1315.17 204.589L1342.4 195.319L1342.4 238.649L1315.17 249.293L1315.17 204.589Z" fill="white"/>
<path d="M1343.25 199.283L1370.49 190.013L1370.49 233.343L1343.25 243.987L1343.25 199.283Z" fill="white"/>
<rect x="1145.9" y="244.044" width="40.8722" height="36.6146" transform="rotate(-8.3284 1145.9 244.044)" fill="white"/>
<rect x="1188.4" y="86.5864" width="36.8649" height="144.882" transform="rotate(-0.436447 1188.4 86.5864)" fill="white"/>
<rect x="1192.94" y="430.009" width="36.1653" height="41.0388" transform="rotate(0.592623 1192.94 430.009)" fill="white"/>
<rect x="1195.52" y="281.308" width="29.2165" height="152.358" transform="rotate(0.584982 1195.52 281.308)" fill="white"/>
<rect x="1149.23" y="433.203" width="31.0072" height="36.6146" transform="rotate(-2.10962 1149.23 433.203)" fill="white"/>
<rect x="1105.48" y="436.843" width="31.0072" height="36.6146" transform="rotate(-0.548309 1105.48 436.843)" fill="white"/>
</svg>
