<svg width="790" height="1201" viewBox="0 0 790 1201" fill="none" xmlns="http://www.w3.org/2000/svg">
<g filter="url(#filter0_n_235_2760)">
<path d="M410.757 1000.44C410.77 1045.11 428.529 1087.94 460.129 1119.52C491.73 1151.1 534.585 1168.84 579.27 1168.85H789.92V1200.48H579.27C539.942 1200.47 501.486 1188.89 468.706 1167.16C435.925 1145.44 410.273 1114.55 394.952 1078.35C379.638 1114.55 353.988 1145.45 321.21 1167.17C288.431 1188.89 249.976 1200.47 210.649 1200.48H0V1168.85H210.649C255.335 1168.84 298.19 1151.1 329.79 1119.52C361.391 1087.94 379.15 1045.11 379.163 1000.44V131.917H410.757V1000.44ZM352.911 993.872C352.911 1033.31 337.238 1071.13 309.338 1099.02C281.439 1126.91 243.598 1142.58 204.142 1142.58H0V1110.98H204.142C235.216 1110.98 265.018 1098.64 286.992 1076.68C308.966 1054.72 321.312 1024.93 321.317 993.872V316.14H352.911V993.872ZM468.683 993.872C468.683 1009.25 471.714 1024.48 477.602 1038.69C483.491 1052.9 492.123 1065.81 503.004 1076.69C513.884 1087.56 526.802 1096.19 541.018 1102.07C555.234 1107.95 570.47 1110.98 585.857 1110.98H790V1142.58H585.857C546.401 1142.58 508.561 1126.91 480.661 1099.02C452.762 1071.13 437.089 1033.31 437.088 993.872V316.14H468.683V993.872ZM294.906 987.287C294.906 1000.08 292.386 1012.74 287.489 1024.55C282.593 1036.37 275.416 1047.1 266.369 1056.14C257.321 1065.19 246.581 1072.36 234.76 1077.25C222.939 1082.14 210.27 1084.66 197.476 1084.66H0V1053.08H197.476C214.934 1053.08 231.677 1046.15 244.023 1033.81C256.369 1021.47 263.308 1004.74 263.312 987.287V474.059H294.906V987.287ZM526.608 987.287C526.613 1004.74 533.551 1021.47 545.897 1033.81C558.243 1046.15 574.986 1053.08 592.444 1053.08H789.92V1084.66H592.444C579.65 1084.66 566.981 1082.14 555.16 1077.25C543.34 1072.36 532.599 1065.19 523.552 1056.14C514.504 1047.1 507.327 1036.37 502.431 1024.55C497.534 1012.74 495.014 1000.08 495.014 987.287V474.059H526.608V987.287ZM412.048 42.5955L457.566 45.7844L422.607 75.1008L433.644 119.355L394.952 95.1879L356.261 119.355L367.297 75.1008L332.354 45.7844L377.871 42.5955L394.952 0.318359L412.048 42.5955Z" fill="#C32304"/>
</g>
<defs>
<filter id="filter0_n_235_2760" x="0" y="0.318359" width="790" height="1200.16" filterUnits="userSpaceOnUse" color-interpolation-filters="sRGB">
<feFlood flood-opacity="0" result="BackgroundImageFix"/>
<feBlend mode="normal" in="SourceGraphic" in2="BackgroundImageFix" result="shape"/>
<feTurbulence type="fractalNoise" baseFrequency="0.71428573131561279 0.71428573131561279" stitchTiles="stitch" numOctaves="3" result="noise" seed="9909" />
<feColorMatrix in="noise" type="luminanceToAlpha" result="alphaNoise" />
<feComponentTransfer in="alphaNoise" result="coloredNoise1">
<feFuncA type="discrete" tableValues="1 1 1 1 1 1 1 1 1 1 1 1 1 1 1 1 1 1 1 1 1 1 1 1 1 1 1 1 1 1 1 1 1 1 1 1 1 1 1 1 1 1 1 1 1 1 1 1 1 1 1 0 0 0 0 0 0 0 0 0 0 0 0 0 0 0 0 0 0 0 0 0 0 0 0 0 0 0 0 0 0 0 0 0 0 0 0 0 0 0 0 0 0 0 0 0 0 0 0 0 "/>
</feComponentTransfer>
<feComposite operator="in" in2="shape" in="coloredNoise1" result="noise1Clipped" />
<feFlood flood-color="#AC1D01" result="color1Flood" />
<feComposite operator="in" in2="noise1Clipped" in="color1Flood" result="color1" />
<feMerge result="effect1_noise_235_2760">
<feMergeNode in="shape" />
<feMergeNode in="color1" />
</feMerge>
</filter>
</defs>
</svg>
