<svg width="26" height="26" viewBox="0 0 26 26" fill="none" xmlns="http://www.w3.org/2000/svg">
<path d="M25.0205 2.39355L14.4141 12.999L25.042 23.627L23.627 25.042L12.999 14.4141L2.39355 25.0205L0.979492 23.6064L11.585 13L1 2.41406L2.41406 1L13 11.585L23.6064 0.979492L25.0205 2.39355Z" fill="white"/>
<path d="M23.627 25.042L12.999 14.4141L2.39355 25.0205L23.627 25.042Z" fill="white"/>
<path d="M2.41406 1L13 11.585L23.6064 0.979492L2.41406 1Z" fill="white"/>
<path d="M1 2.41406L2.41406 1H1V2.41406Z" fill="white"/>
<path d="M23.6064 0.979492L25.0205 2.39355V0.979492H23.6064Z" fill="white"/>
<path d="M25.042 23.627L23.627 25.042H25.042V23.627Z" fill="white"/>
<path d="M2.39355 25.0205L0.979492 23.6064V25.0205H2.39355Z" fill="white"/>
</svg>
