<svg width="181" height="72" viewBox="0 0 181 72" fill="none" xmlns="http://www.w3.org/2000/svg">
<g clip-path="url(#clip0_235_2930)">
<path fill-rule="evenodd" clip-rule="evenodd" d="M23.3065 8.58042C25.716 8.58042 27.6723 6.64047 27.6723 4.24183C27.6723 1.84739 25.7202 -0.0967712 23.3065 -0.0967712C20.8929 -0.0967712 18.9365 1.84318 18.9365 4.24183C18.9365 6.64047 20.8971 8.58042 23.3065 8.58042ZM68.1032 12.9232C70.5126 12.9232 72.469 10.9791 72.469 8.58041C72.469 6.18598 70.5169 4.24181 68.1032 4.24181C65.6895 4.24181 63.7332 6.18177 63.7332 8.58041C63.7332 10.9791 65.6938 12.9232 68.1032 12.9232ZM162.063 8.52991C162.063 10.9285 160.106 12.8685 157.697 12.8685C155.287 12.8685 153.327 10.9285 153.327 8.52991C153.327 6.13126 155.283 4.19131 157.697 4.19131C160.111 4.19131 162.063 6.13126 162.063 8.52991ZM112.9 8.58042C115.309 8.58042 117.266 6.64047 117.266 4.24183C117.266 1.84739 115.314 -0.0967712 112.9 -0.0967712C110.486 -0.0967712 108.53 1.84318 108.53 4.24183C108.53 6.64047 110.491 8.58042 112.9 8.58042Z" fill="#89D8E3"/>
<path fill-rule="evenodd" clip-rule="evenodd" d="M5.20462 34.6414C5.20462 39.3797 9.08766 43.2344 13.8515 43.2344L13.8557 43.2302C16.2143 43.2302 18.357 42.2833 19.9195 40.7516L22.4814 44.9639C20.1439 46.8955 17.1374 48.0611 13.8557 48.0611C6.39452 48.0611 0.347656 42.0519 0.347656 34.6371C0.347656 27.2224 6.39452 21.2132 13.8557 21.2132C16.8495 21.2132 19.6061 22.1979 21.8462 23.8348L19.3182 27.9925C17.8277 26.7805 15.9264 26.0525 13.8515 26.0525C9.08342 26.0525 5.20462 29.903 5.20462 34.6414ZM50.5603 34.6414C50.5603 29.8272 46.618 25.9053 41.7695 25.9053C36.9252 25.9053 32.9787 29.8272 32.9787 34.6414C32.9787 39.4555 36.9252 43.3775 41.7695 43.3775C46.6137 43.3775 50.5603 39.4555 50.5603 34.6414ZM28.2614 34.6456C28.2614 27.2308 34.3083 21.2216 41.7695 21.2216C49.2307 21.2216 55.2775 27.2308 55.2775 34.6456C55.2775 42.0603 49.2307 48.0696 41.7695 48.0696C34.3083 48.0696 28.2614 42.0603 28.2614 34.6456ZM141.962 25.9053C146.81 25.9053 150.753 29.8272 150.753 34.6414C150.753 39.4555 146.806 43.3775 141.962 43.3775C137.118 43.3775 133.171 39.4555 133.171 34.6414C133.171 29.8272 137.118 25.9053 141.962 25.9053ZM141.962 21.2216C134.501 21.2216 128.454 27.2308 128.454 34.6456C128.454 42.0603 134.501 48.0696 141.962 48.0696C149.423 48.0696 155.47 42.0603 155.47 34.6456C155.47 27.2308 149.423 21.2216 141.962 21.2216ZM71.8895 21.2216C66.8038 21.2216 63.7338 24.4913 63.7338 28.3965V28.4007C63.7338 33.1703 67.4866 34.8576 70.7703 36.334C73.3244 37.4823 75.5947 38.5031 75.5947 40.7474C75.5947 42.7168 73.9474 43.7983 71.7751 43.7983C69.7553 43.7983 67.2866 42.8304 65.7537 40.861L63.1325 43.9834C64.4071 46.6219 68.3367 48.0738 71.7031 48.0738C76.6025 48.0738 80.4559 45.0986 80.4559 40.7095C80.4559 35.8656 76.749 34.2636 73.4798 32.8508C70.9013 31.7365 68.595 30.7398 68.595 28.3628C68.595 26.6543 69.9797 25.5013 72.2621 25.5013C74.3582 25.5013 75.6328 26.204 76.9031 27.4328L79.3761 24.0116C77.8008 22.2989 75.1077 21.2216 71.8895 21.2216ZM163.931 28.3965C163.931 24.4913 167.001 21.2216 172.086 21.2216C175.304 21.2216 177.998 22.2989 179.569 24.0116L177.1 27.4328C175.829 26.204 174.555 25.5013 172.459 25.5013C170.176 25.5013 168.792 26.6543 168.792 28.3628C168.792 30.7398 171.098 31.7365 173.677 32.8508C176.946 34.2636 180.653 35.8656 180.653 40.7095C180.653 45.0986 176.799 48.0738 171.896 48.0738C168.529 48.0738 164.6 46.6219 163.329 43.9834L165.946 40.861C167.479 42.8304 169.948 43.7983 171.972 43.7983C174.14 43.7983 175.787 42.7168 175.787 40.7474C175.787 38.5031 173.517 37.4823 170.963 36.334C167.679 34.8576 163.926 33.1703 163.926 28.4007L163.931 28.3965ZM104.398 39.8763L111.338 21.6171H115.606L121.027 47.6529H116.212L112.769 31.1191L106.485 47.6529H102.42L95.8779 31.2159L92.8502 47.6529H88.0568L92.846 21.6171H97.1271L104.398 39.8763ZM15.7292 64.9468L12.7855 60.9258H11.2583V69.5334H12.7732V63.3482L15.5198 67.1356H15.7415L18.4634 63.3113V69.5334H19.966V60.9258H18.5373L15.7292 64.9468ZM22.9922 65.2296C22.9922 63.9754 23.4109 62.922 24.2484 62.0694C25.1024 61.2168 26.178 60.7906 27.4754 60.7906C28.7727 60.7906 29.8442 61.2005 30.69 62.0202C31.5439 62.8482 31.9709 63.918 31.9709 65.2296C31.9709 66.5166 31.5439 67.5782 30.69 68.4144C29.836 69.2505 28.7645 69.6686 27.4754 69.6686C26.178 69.6686 25.1065 69.2587 24.2608 68.439C23.415 67.6192 22.9922 66.5494 22.9922 65.2296ZM24.5933 65.2296C24.5933 66.0985 24.8684 66.8199 25.4185 67.3938C25.9686 67.9676 26.6543 68.2545 27.4754 68.2545C28.3621 68.2545 29.0642 67.9676 29.5815 67.3938C30.107 66.8199 30.3697 66.0985 30.3697 65.2296C30.3697 64.3524 30.0906 63.627 29.5322 63.0531C28.9739 62.4875 28.2882 62.2047 27.4754 62.2047C26.646 62.2047 25.9563 62.4875 25.4062 63.0531C24.8643 63.6188 24.5933 64.3442 24.5933 65.2296ZM38.1619 66.5576C38.359 66.7544 38.4575 66.9839 38.4575 67.2462C38.4575 67.5577 38.3426 67.8037 38.1127 67.984C37.8828 68.1644 37.579 68.2545 37.2013 68.2545C36.84 68.2545 36.4746 68.1685 36.1051 67.9963C35.7438 67.8242 35.4482 67.5864 35.2183 67.2831L34.3562 68.316C34.5532 68.7341 34.9227 69.0661 35.4646 69.312C36.0312 69.5498 36.6019 69.6686 37.1766 69.6686C37.9977 69.6686 38.6833 69.4432 39.2335 68.9923C39.7836 68.5414 40.0587 67.9553 40.0587 67.2339C40.0587 66.7994 39.9643 66.4142 39.7754 66.0781C39.5948 65.7419 39.3525 65.4837 39.0487 65.3034C38.7778 65.123 38.4616 64.9509 38.1004 64.7869C38.01 64.7459 37.854 64.6763 37.6323 64.5779C37.4106 64.4795 37.2505 64.4098 37.152 64.3688C37.0617 64.3197 36.9344 64.2459 36.7702 64.1475C36.6142 64.0491 36.4992 63.959 36.4253 63.877C36.3596 63.795 36.2981 63.6925 36.2406 63.5696C36.1831 63.4384 36.1544 63.299 36.1544 63.1515C36.1544 62.8646 36.2611 62.635 36.4746 62.4629C36.6963 62.2907 36.9919 62.2047 37.3614 62.2047C37.9444 62.2047 38.4534 62.4178 38.8886 62.8441L39.7015 61.7128C39.1514 61.098 38.3303 60.7906 37.2382 60.7906C36.4335 60.7906 35.7808 61.0201 35.2799 61.4792C34.7954 61.9382 34.5532 62.4998 34.5532 63.1638C34.5532 63.5983 34.6476 63.9836 34.8365 64.3197C35.0336 64.6476 35.2758 64.9058 35.5632 65.0943C35.8506 65.2747 36.1626 65.4509 36.4992 65.6231C36.8441 65.787 37.1602 65.9346 37.4476 66.0658C37.735 66.1887 37.9731 66.3527 38.1619 66.5576ZM49.0628 67.5659L49.6417 68.6972C49.3707 68.9841 48.9807 69.2178 48.4716 69.3981C47.9708 69.5784 47.4412 69.6686 46.8828 69.6686C45.569 69.6686 44.4975 69.2628 43.6682 68.4513C42.8471 67.6397 42.4366 66.5658 42.4366 65.2296C42.4366 63.9508 42.8266 62.8892 43.6066 62.0448C44.3785 61.2087 45.4582 60.7906 46.8459 60.7906C47.9461 60.7906 48.8206 61.0816 49.4693 61.6636L48.7919 62.7826C48.2089 62.3973 47.5602 62.2047 46.8459 62.2047C46.0248 62.2047 45.3515 62.4793 44.826 63.0285C44.3004 63.5778 44.0377 64.3115 44.0377 65.2296C44.0377 66.1313 44.3128 66.8609 44.8629 67.4184C45.4212 67.9758 46.1397 68.2545 47.0183 68.2545C47.7737 68.2545 48.4552 68.025 49.0628 67.5659ZM52.6753 62.0694C51.8378 62.922 51.419 63.9754 51.419 65.2296C51.419 66.5494 51.8419 67.6192 52.6876 68.439C53.5334 69.2587 54.6049 69.6686 55.9022 69.6686C57.1914 69.6686 58.2629 69.2505 59.1168 68.4144C59.9708 67.5782 60.3978 66.5166 60.3978 65.2296C60.3978 63.918 59.9708 62.8482 59.1168 62.0202C58.2711 61.2005 57.1996 60.7906 55.9022 60.7906C54.6049 60.7906 53.5293 61.2168 52.6753 62.0694ZM53.8454 67.3938C53.2953 66.8199 53.0202 66.0985 53.0202 65.2296C53.0202 64.3442 53.2911 63.6188 53.8331 63.0531C54.3832 62.4875 55.0729 62.2047 55.9022 62.2047C56.7151 62.2047 57.4007 62.4875 57.9591 63.0531C58.5174 63.627 58.7966 64.3524 58.7966 65.2296C58.7966 66.0985 58.5339 66.8199 58.0084 67.3938C57.4911 67.9676 56.789 68.2545 55.9022 68.2545C55.0811 68.2545 54.3955 67.9676 53.8454 67.3938ZM70.9048 67.0741L72.6291 60.9258H74.0824L71.6191 69.5334H70.2028L68.1213 63.3113L66.0767 69.5334H64.648L62.0739 60.9258H63.7736L65.5102 67.0618L67.4315 60.9258H68.9342L70.9048 67.0741ZM83.9593 69.558L87.408 60.9258H85.893L83.442 67.3077L80.8802 60.9258H79.2668L82.8139 69.558H83.9593ZM91.2578 69.5457C90.9048 69.5375 90.4942 69.5334 90.0262 69.5334H89.8538V60.9258H90.0139C90.3752 60.9258 90.757 60.9217 91.1593 60.9135C91.964 60.8971 92.3745 60.8889 92.391 60.8889C94.066 60.8889 95.3058 61.3152 96.1105 62.1678C96.8577 62.9629 97.2313 63.9549 97.2313 65.1435C97.2313 66.4224 96.8003 67.4798 95.9381 68.316C95.0842 69.144 93.8689 69.558 92.2924 69.558C91.964 69.558 91.6191 69.5539 91.2578 69.5457ZM92.3663 62.303C92.0461 62.303 91.7135 62.3153 91.3687 62.3399V68.1193C91.7464 68.1357 92.0707 68.1439 92.3417 68.1439C93.368 68.1439 94.1727 67.8733 94.7557 67.3323C95.3387 66.7912 95.6302 66.0617 95.6302 65.1435C95.6302 64.2664 95.3387 63.5737 94.7557 63.0654C94.1809 62.5572 93.3845 62.303 92.3663 62.303ZM101.672 63.5696L106.414 69.5334H107.621V60.9258H106.204V66.9142L101.463 60.9258H100.256V69.5334H101.672V63.5696ZM135.762 65.2296C135.762 63.9754 136.18 62.922 137.018 62.0694C137.872 61.2168 138.947 60.7906 140.245 60.7906C141.542 60.7906 142.614 61.2005 143.459 62.0202C144.313 62.8482 144.74 63.918 144.74 65.2296C144.74 66.5166 144.313 67.5782 143.459 68.4144C142.605 69.2505 141.534 69.6686 140.245 69.6686C138.947 69.6686 137.876 69.2587 137.03 68.439C136.184 67.6192 135.762 66.5494 135.762 65.2296ZM137.363 65.2296C137.363 66.0985 137.638 66.8199 138.188 67.3938C138.738 67.9676 139.424 68.2545 140.245 68.2545C141.132 68.2545 141.834 67.9676 142.351 67.3938C142.876 66.8199 143.139 66.0985 143.139 65.2296C143.139 64.3524 142.86 63.627 142.302 63.0531C141.743 62.4875 141.058 62.2047 140.245 62.2047C139.415 62.2047 138.726 62.4875 138.176 63.0531C137.634 63.6188 137.363 64.3442 137.363 65.2296ZM118.242 69.5334H116.739V65.8567H112.798V69.5334H111.283V60.9258H112.798V64.4426H116.739V60.9258H118.242V69.5334ZM131.24 69.5334H132.743V60.9258H131.24V64.4426H127.299V60.9258H125.784V69.5334H127.299V65.8567H131.24V69.5334ZM146.298 62.3399H149.093V69.5334H150.608V62.3399H153.404V60.9258H146.298V62.3399ZM161.102 69.5334H155.991V60.9258H160.979V62.3399H157.506V64.4795H160.609V65.8936H157.506V68.1193H161.102V69.5334ZM164.348 69.5334H169.742V68.1193H165.863V60.9258H164.348V69.5334Z" fill="white"/>
</g>
<defs>
<clipPath id="clip0_235_2930">
<rect width="181" height="72" fill="white"/>
</clipPath>
</defs>
</svg>
