<svg width="72" height="44" viewBox="0 0 72 44" fill="none" xmlns="http://www.w3.org/2000/svg">
<path d="M16.9225 36.6667C17.3715 36.6667 17.7678 36.7462 18.1111 36.9048C18.4564 37.0634 18.7285 37.2816 18.927 37.5596C19.1255 37.8354 19.2292 38.1524 19.2379 38.5107H18.2732C18.2386 38.2024 18.0958 37.9631 17.8455 37.7937C17.5951 37.6222 17.2799 37.5368 16.9001 37.5368C16.6282 37.5368 16.3928 37.5802 16.1943 37.667C15.9957 37.7517 15.8413 37.869 15.7312 38.0188C15.6233 38.1665 15.5691 38.3349 15.5691 38.5237C15.5691 38.6823 15.6058 38.8195 15.6792 38.9346C15.7548 39.0497 15.8531 39.1465 15.9739 39.2247C16.0969 39.3006 16.2287 39.3646 16.3689 39.4167C16.5091 39.4666 16.644 39.5081 16.7733 39.5406L17.4214 39.7103C17.6328 39.7624 17.8498 39.8325 18.0721 39.9216C18.2944 40.0106 18.5006 40.1283 18.6906 40.2738C18.8805 40.4193 19.034 40.5995 19.1505 40.8145C19.2692 41.0295 19.3288 41.2873 19.3288 41.587C19.3287 41.9649 19.2314 42.3005 19.0372 42.5937C18.8451 42.8869 18.5653 43.118 18.1984 43.2874C17.8336 43.4568 17.3921 43.5417 16.8741 43.5417C16.3776 43.5417 15.9478 43.4626 15.5852 43.304C15.2227 43.1454 14.9389 42.9205 14.7338 42.6295C14.5288 42.3363 14.4155 41.9888 14.3939 41.587H15.398C15.4174 41.828 15.495 42.0288 15.6309 42.1895C15.769 42.348 15.9452 42.4667 16.1589 42.5449C16.3746 42.6208 16.6107 42.659 16.8674 42.659C17.1501 42.659 17.4019 42.6142 17.622 42.5252C17.8442 42.434 18.0191 42.3081 18.1464 42.1474C18.2738 41.9845 18.3377 41.7944 18.3377 41.5772C18.3377 41.3796 18.2815 41.2175 18.1693 41.0916C18.0592 40.9656 17.9091 40.8612 17.7192 40.7787C17.5314 40.6962 17.3184 40.6233 17.081 40.5603L16.2977 40.3454C15.7668 40.1999 15.3456 39.9859 15.0348 39.7036C14.7261 39.4212 14.5722 39.0472 14.5722 38.5824C14.5722 38.198 14.6754 37.8624 14.8825 37.5757C15.0897 37.289 15.3706 37.0665 15.7245 36.9079C16.0784 36.7472 16.4779 36.6667 16.9225 36.6667ZM39.0754 36.6667C39.5244 36.6667 39.9203 36.7462 40.2635 36.9048C40.6089 37.0633 40.8809 37.2816 41.0795 37.5596C41.278 37.8354 41.3817 38.1524 41.3903 38.5107H40.4257C40.3911 38.2024 40.2488 37.9631 39.9984 37.7937C39.748 37.6221 39.4325 37.5368 39.0525 37.5368C38.7807 37.5368 38.5453 37.5802 38.3467 37.667C38.1483 37.7517 37.9942 37.8691 37.8841 38.0188C37.7762 38.1665 37.722 38.3348 37.722 38.5237C37.722 38.6823 37.7583 38.8195 37.8317 38.9346C37.9072 39.0497 38.0056 39.1465 38.1264 39.2247C38.2494 39.3006 38.3812 39.3645 38.5214 39.4167C38.6617 39.4666 38.7968 39.5081 38.9263 39.5406L39.5738 39.7103C39.7854 39.7624 40.0027 39.8325 40.225 39.9216C40.4473 40.0106 40.6536 40.1283 40.8435 40.2738C41.0333 40.4193 41.1865 40.5996 41.303 40.8145C41.4217 41.0295 41.4812 41.2873 41.4812 41.587C41.4812 41.9649 41.3839 42.3005 41.1897 42.5937C40.9976 42.8869 40.7178 43.118 40.3509 43.2874C39.9861 43.4568 39.5449 43.5416 39.027 43.5417C38.5306 43.5417 38.1007 43.4625 37.7381 43.304C37.3755 43.1454 37.0918 42.9205 36.8867 42.6295C36.6817 42.3363 36.568 41.9888 36.5464 41.587H37.5505C37.5699 41.828 37.6474 42.0288 37.7833 42.1895C37.9215 42.3481 38.0977 42.4667 38.3114 42.5449C38.5271 42.6209 38.7636 42.659 39.0203 42.659C39.303 42.659 39.5548 42.6142 39.7749 42.5252C39.9971 42.434 40.172 42.3081 40.2994 42.1474C40.4267 41.9845 40.4901 41.7943 40.4901 41.5772C40.4901 41.3795 40.434 41.2175 40.3218 41.0916C40.2117 40.9656 40.0616 40.8612 39.8717 40.7787C39.6839 40.6962 39.4713 40.6232 39.2339 40.5603L38.4502 40.3454C37.9193 40.1999 37.4985 39.9859 37.1877 39.7036C36.879 39.4212 36.7246 39.0472 36.7246 38.5824C36.7247 38.198 36.8283 37.8624 37.0354 37.5757C37.2427 37.289 37.5234 37.0665 37.8774 36.9079C38.2314 36.7472 38.6307 36.6667 39.0754 36.6667ZM2.98224 36.6667C3.33402 36.6667 3.6623 36.7177 3.96661 36.8197C4.27309 36.9197 4.54855 37.0674 4.79245 37.2629C5.0363 37.4562 5.23824 37.693 5.39794 37.9732C5.55763 38.2512 5.66517 38.5696 5.72129 38.9279H4.71139C4.67254 38.7108 4.60032 38.5196 4.49463 38.3545C4.38889 38.1895 4.25909 38.0494 4.10589 37.9342C3.95267 37.8191 3.78076 37.7319 3.59086 37.6733C3.40313 37.6147 3.2031 37.5856 2.99164 37.5856C2.60973 37.5856 2.26772 37.6824 1.96562 37.8756C1.66569 38.0689 1.4279 38.3521 1.25309 38.7256C1.08042 39.0992 0.994251 39.5557 0.994228 40.0943C0.994232 40.6372 1.08048 41.0957 1.25309 41.4693C1.42792 41.8429 1.66659 42.1255 1.96875 42.3166C2.27094 42.5077 2.61123 42.6035 2.98895 42.6035C3.19822 42.6035 3.39689 42.5754 3.58459 42.5189C3.77449 42.4603 3.94595 42.374 4.09917 42.2611C4.25236 42.1482 4.38217 42.0104 4.48791 41.8475C4.59579 41.6825 4.67038 41.4933 4.71139 41.2804L5.72129 41.2836C5.66733 41.6115 5.56273 41.9136 5.40734 42.1895C5.2541 42.4632 5.05658 42.7004 4.81484 42.9003C4.57528 43.0979 4.30074 43.2509 3.99214 43.3595C3.68357 43.468 3.34688 43.5224 2.98224 43.5224C2.40808 43.5224 1.89642 43.3852 1.44745 43.1115C0.998487 42.8357 0.644175 42.4412 0.385151 41.9286C0.128414 41.416 4.9036e-06 40.8044 0 40.0943C2.60026e-05 39.3819 0.129725 38.7701 0.388734 38.2596C0.647727 37.7472 1.00176 37.3543 1.45059 37.0807C1.89955 36.8048 2.41025 36.6667 2.98224 36.6667ZM10.0587 36.6667C10.6307 36.6667 11.1414 36.8048 11.5904 37.0807C12.0413 37.3543 12.3964 37.7472 12.6554 38.2596C12.9144 38.7701 13.0441 39.3819 13.0441 40.0943C13.0441 40.8067 12.9143 41.4195 12.6554 41.9321C12.3964 42.4424 12.0414 42.8357 11.5904 43.1115C11.1414 43.3852 10.6307 43.5224 10.0587 43.5224C9.48455 43.5224 8.97149 43.3852 8.52035 43.1115C8.07151 42.8357 7.71747 42.4411 7.4585 41.9286C7.19959 41.416 7.07022 40.8045 7.07021 40.0943C7.07024 39.3819 7.19949 38.7701 7.4585 38.2596C7.71746 37.7472 8.07158 37.3543 8.52035 37.0807C8.97149 36.8048 9.48455 36.6667 10.0587 36.6667ZM32.2116 36.6667C32.7835 36.6667 33.2939 36.8049 33.7428 37.0807C34.1938 37.3543 34.5488 37.7473 34.8078 38.2596C35.0668 38.7701 35.1965 39.3819 35.1966 40.0943C35.1966 40.8067 35.0668 41.4195 34.8078 41.9321C34.5488 42.4425 34.1939 42.8357 33.7428 43.1115C33.2939 43.3851 32.7835 43.5224 32.2116 43.5224C31.6375 43.5224 31.1244 43.3852 30.6733 43.1115C30.2243 42.8357 29.8704 42.4411 29.6114 41.9286C29.3525 41.416 29.2227 40.8045 29.2227 40.0943C29.2227 39.3819 29.3524 38.7701 29.6114 38.2596C29.8704 37.7472 30.2244 37.3543 30.6733 37.0807C31.1244 36.8048 31.6375 36.6667 32.2116 36.6667ZM24.2139 41.9456H24.2918L26.4026 36.758H27.6171V43.4311H26.6655V38.6021H26.6037L24.6479 43.4213H23.8579L21.9021 38.5989H21.8408V43.4311H20.8886V36.758H22.1028L24.2139 41.9456ZM48.2447 42.1931H48.319L50.1642 36.758H51.2457L48.8596 43.4311H47.7037L45.3171 36.758H46.3986L48.2447 42.1931ZM54.7833 36.758C55.4329 36.758 55.9912 36.8915 56.4574 37.1586C56.9236 37.4236 57.2808 37.8052 57.5291 38.3026C57.7794 38.7978 57.9043 39.3917 57.9044 40.0845C57.9044 40.7795 57.7784 41.3771 57.5259 41.8766C57.2755 42.3762 56.9129 42.7612 56.4381 43.0305C55.9632 43.2977 55.3887 43.4311 54.7152 43.4311H52.5687V36.758H54.7833ZM63.8133 41.6587H63.8747V36.758H64.8657V43.4311H63.9459L60.5753 38.5372H60.514V43.4311H59.5135V36.758H60.4396L63.8133 41.6587ZM67.6903 39.6579H70.9964V36.758H72V43.4311H70.9964V40.5213H67.6903V43.4311H66.6898V36.758H67.6903V39.6579ZM10.0587 37.5856C9.67676 37.5856 9.33581 37.6824 9.03583 37.8756C8.73585 38.0667 8.49813 38.349 8.3233 38.7225C8.15063 39.0939 8.06402 39.5513 8.06399 40.0943C8.064 40.6373 8.15067 41.0957 8.3233 41.4693C8.49814 41.8407 8.7358 42.1233 9.03583 42.3166C9.33581 42.5077 9.67675 42.6035 10.0587 42.6035C10.4386 42.6035 10.7789 42.5077 11.0789 42.3166C11.381 42.1233 11.6184 41.8407 11.791 41.4693C11.9658 41.0957 12.0534 40.6373 12.0534 40.0943C12.0534 39.5514 11.9658 39.0939 11.791 38.7225C11.6184 38.349 11.3809 38.0667 11.0789 37.8756C10.7789 37.6823 10.4386 37.5856 10.0587 37.5856ZM32.2116 37.5856C31.8296 37.5856 31.4883 37.6824 31.1883 37.8756C30.8883 38.0667 30.6506 38.349 30.4758 38.7225C30.3031 39.0939 30.2169 39.5513 30.2169 40.0943C30.2169 40.6372 30.3032 41.0957 30.4758 41.4693C30.6506 41.8407 30.8883 42.1233 31.1883 42.3166C31.4883 42.5077 31.8296 42.6035 32.2116 42.6035C32.5914 42.6035 32.9314 42.5077 33.2314 42.3166C33.5335 42.1233 33.7713 41.8407 33.9439 41.4693C34.1187 41.0958 34.2059 40.6372 34.2059 40.0943C34.2059 39.5514 34.1187 39.0939 33.9439 38.7225C33.7713 38.3489 33.5335 38.0667 33.2314 37.8756C32.9314 37.6823 32.5914 37.5856 32.2116 37.5856ZM53.5687 42.5516H54.6601C55.1651 42.5516 55.5849 42.4557 55.9195 42.2647C56.2541 42.0714 56.5048 41.7917 56.671 41.4268C56.8371 41.0597 56.9204 40.6122 56.9204 40.0845C56.9204 39.5612 56.8371 39.1173 56.671 38.7524C56.5069 38.3876 56.2619 38.1102 55.9361 37.9213C55.6101 37.7323 55.205 37.6375 54.7215 37.6375H53.5687V42.5516ZM17.2494 33H0V20.625H17.2494V33ZM53.3748 33H18.6252V21.4701C19.0043 21.7085 19.4329 21.9271 19.8931 22.1267C21.0404 22.6244 22.4968 23.0581 24.1544 23.4157C27.4724 24.1317 31.6748 24.5598 36 24.5598C40.325 24.5598 44.5271 24.1316 47.8452 23.4157C49.5028 23.0581 50.9591 22.6244 52.1065 22.1267C52.5667 21.927 52.9956 21.7086 53.3748 21.4701V33ZM72 33H54.7506V20.625H72V33ZM53.3748 19.7106C53.0768 20.0599 52.4903 20.4613 51.5588 20.8654C50.5223 21.315 49.1603 21.7252 47.555 22.0716C44.3471 22.7637 40.244 23.1848 36 23.1848C31.756 23.1848 27.6528 22.7637 24.445 22.0716C22.8398 21.7253 21.4777 21.315 20.4412 20.8654C19.5097 20.4613 18.9232 20.0599 18.6252 19.7106V0.845052C19.0043 1.0835 19.433 1.30207 19.8931 1.50167C21.0404 1.99945 22.4967 2.43304 24.1544 2.79073C27.4725 3.50671 31.6747 3.93477 36 3.93477C40.3253 3.93477 44.5275 3.50671 47.8456 2.79073C49.5033 2.43304 50.9596 1.99945 52.1069 1.50167C52.567 1.30207 52.9957 1.0835 53.3748 0.845052V19.7106ZM17.2494 19.25H12.3822V0H17.2494V19.25ZM59.6178 19.25H54.7506V0H59.6178V19.25ZM40.7324 8.33818C40.1527 8.33818 39.6298 8.46017 39.1641 8.70431C38.6983 8.94845 38.3008 9.30486 37.9719 9.7736C37.6429 10.2391 37.3904 10.8104 37.2146 11.4874C37.042 12.1645 36.9557 12.9394 36.9557 13.8118C36.9557 14.7329 37.0599 15.5012 37.2683 16.1164C37.48 16.7316 37.7621 17.2213 38.1139 17.5859C38.4656 17.9504 38.8564 18.2111 39.2863 18.3674C39.7195 18.5236 40.1591 18.6048 40.6052 18.6113C41.3022 18.6178 41.9114 18.4716 42.4325 18.1722C42.9536 17.8695 43.3577 17.4589 43.6444 16.9413C43.9341 16.4238 44.0792 15.8461 44.0792 15.2083C44.0792 14.5702 43.9388 14.0035 43.6587 13.5087C43.3786 13.014 43.0023 12.6267 42.5301 12.3468C42.0612 12.0637 41.5369 11.9221 40.9573 11.922C40.6087 11.922 40.2763 11.9774 39.9603 12.0881C39.6477 12.1955 39.3643 12.35 39.1103 12.5518C38.8595 12.7504 38.6479 12.9915 38.4753 13.2747H38.4018C38.4051 12.1386 38.6105 11.2513 39.0176 10.6133C39.428 9.97535 39.9996 9.65633 40.7324 9.65633C41.2144 9.65635 41.6053 9.78835 41.9049 10.052C42.2045 10.3157 42.405 10.6559 42.5059 11.0725H43.9959C43.9178 10.5452 43.7336 10.0747 43.4437 9.66125C43.1571 9.24788 42.7825 8.9239 42.3201 8.68954C41.8576 8.45521 41.3284 8.33819 40.7324 8.33818ZM27.6901 15.3009V16.5215H32.4342V18.4748H33.8754V16.5215H35.1992V15.2423H33.8754V8.47469H32.0141L27.6901 15.3009ZM40.6348 13.1475C41.0158 13.1476 41.3546 13.2404 41.651 13.4259C41.9506 13.6115 42.1852 13.8622 42.3545 14.1779C42.5271 14.4936 42.6134 14.8435 42.6134 15.2275C42.6134 15.6213 42.5254 15.9778 42.3496 16.2968C42.1737 16.6158 41.9342 16.8698 41.6313 17.0586C41.3284 17.2474 40.9847 17.3419 40.6003 17.3419C40.2161 17.3419 39.871 17.2457 39.5649 17.0537C39.262 16.8584 39.0224 16.6014 38.8465 16.2825C38.6739 15.9635 38.5877 15.6166 38.5877 15.2423C38.5877 14.9623 38.6398 14.6971 38.744 14.4465C38.8515 14.1925 38.9981 13.9677 39.1838 13.7724C39.3694 13.5772 39.5845 13.4242 39.8287 13.3136C40.0762 13.203 40.345 13.1475 40.6348 13.1475ZM32.4441 15.2423H29.2733V15.1644L32.3657 10.2718H32.4441V15.2423Z" fill="white"/>
</svg>
